<svg width="27" height="26" viewBox="0 0 27 26" fill="none" xmlns="http://www.w3.org/2000/svg">
<path d="M11.1719 2.25082C12.1233 0.583063 14.5017 0.583061 15.4531 2.25081L26.2902 21.2476C27.2416 22.9153 26.0523 25 24.1495 25H2.47549C0.572697 25 -0.616551 22.9153 0.334846 21.2476L11.1719 2.25082Z" fill="#E85657"/>
<path d="M12.2077 7H14.8154L14.3769 17.1771H12.6231L12.2077 7ZM13.5231 22C13.0923 22 12.7308 21.8725 12.4385 21.6176C12.1462 21.3484 12 21.0227 12 20.6402C12 20.2578 12.1462 19.9391 12.4385 19.6841C12.7308 19.415 13.0923 19.2805 13.5231 19.2805C13.9538 19.2805 14.3077 19.415 14.5846 19.6841C14.8615 19.9391 15 20.2578 15 20.6402C15 21.0227 14.8538 21.3484 14.5615 21.6176C14.2846 21.8725 13.9385 22 13.5231 22Z" fill="white"/>
</svg>
