<svg width="42" height="42" viewBox="0 0 42 42" fill="none" xmlns="http://www.w3.org/2000/svg">
<path d="M1.02133 41C1.02133 41 0.376167 31.3225 6.18262 29.3871L15.86 26.1613V22.2903" stroke="#925ADD" stroke-width="1.5" stroke-miterlimit="10" stroke-linecap="round" stroke-linejoin="round"/>
<path d="M26.1826 22.2903V26.1613L35.86 29.3871C41.6665 31.3225 41.0213 41 41.0213 41" stroke="#925ADD" stroke-width="1.5" stroke-miterlimit="10" stroke-linecap="round" stroke-linejoin="round"/>
<path d="M24.2472 22.9355C28.7633 21 29.2149 15.7742 29.7311 11.7742C29.9891 9.58065 30.0536 7.25806 29.0214 5.25806C28.0536 3.45161 26.3117 2.16129 24.3762 1.51613C23.344 1.19355 22.1827 1 21.0214 1C19.8601 1 18.6988 1.19355 17.6665 1.58065C15.7311 2.22581 13.9891 3.51613 13.0214 5.32258C11.9891 7.32258 12.0536 9.64516 12.3117 11.8387C12.8278 15.7742 13.2795 21 17.7956 22.9355" stroke="#925ADD" stroke-width="1.5" stroke-miterlimit="10" stroke-linecap="round" stroke-linejoin="round"/>
<path d="M15.2148 10.0322C21.6665 10.0322 22.9568 8.74188 23.6019 6.8064C23.6019 6.8064 23.6019 10.0322 26.8277 10.0322" stroke="#925ADD" stroke-width="1.5" stroke-miterlimit="10" stroke-linecap="square" stroke-linejoin="round"/>
<path d="M15.8601 26.1613C15.8601 30.0322 21.0214 33.258 21.0214 33.258C21.0214 33.258 26.1827 30.0322 26.1827 26.1613" stroke="#925ADD" stroke-width="1.5" stroke-miterlimit="10" stroke-linecap="round" stroke-linejoin="round"/>
</svg>
