<svg width="24" height="24" viewBox="0 0 24 24" fill="none" xmlns="http://www.w3.org/2000/svg">
<path d="M0.816815 3.27919C1.10136 1.37276 2.75403 -0.000976562 4.68158 -0.000976562H19.2185C21.1294 -0.000976562 22.7727 1.34919 23.0764 3.23581C23.4849 5.77261 23.9683 9.31084 23.9984 11.999C24.0281 14.6533 23.634 18.1435 23.2858 20.6751C23.021 22.6012 21.359 23.999 19.4147 23.999H4.68158C2.75403 23.999 1.10136 22.6253 0.816816 20.7189C0.438548 18.1845 0 14.6703 0 11.999C0 9.32775 0.438548 5.81353 0.816815 3.27919Z" fill="url(#paint0_linear_301_541)"/>
<path d="M13.1382 18.544V12.5824H15.1494L15.4483 10.2482H13.1382V8.7614C13.1382 8.08784 13.3258 7.62668 14.2925 7.62668H15.5174V5.54563C14.9215 5.48176 14.3224 5.45092 13.723 5.45325C11.9453 5.45325 10.7247 6.53851 10.7247 8.53082V10.2438H8.72656V12.578H10.7291V18.544H13.1382Z" fill="white"/>
<defs>
<linearGradient id="paint0_linear_301_541" x1="4.50811" y1="-0.000976469" x2="9.60877" y2="25.8946" gradientUnits="userSpaceOnUse">
<stop stop-color="#79CBEB"/>
<stop offset="1" stop-color="#2C64F5"/>
</linearGradient>
</defs>
</svg>
