<svg width="32" height="32" viewBox="0 0 32 32" fill="none" xmlns="http://www.w3.org/2000/svg">
<rect width="32" height="32" rx="3" fill="#F2F6FF"/>
<path d="M6.49935 25H5.66602V25.8333H6.49935V25Z" fill="#2BAF5D"/>
<path d="M13.9993 25H13.166V25.8333H13.9993V25Z" fill="#2BAF5D"/>
<path d="M11.4993 25H10.666V25.8333H11.4993V25Z" fill="#2BAF5D"/>
<path d="M8.99935 25H8.16602V25.8333H8.99935V25Z" fill="#2BAF5D"/>
<path d="M10.2493 23.3335H9.41602V24.1668H10.2493V23.3335Z" fill="#2BAF5D"/>
<path d="M7.74935 23.3335H6.91602V24.1668H7.74935V23.3335Z" fill="#2BAF5D"/>
<path d="M12.7493 23.3335H11.916V24.1668H12.7493V23.3335Z" fill="#2BAF5D"/>
<path d="M26.9167 15.8333H21.9167C22.1893 15.4739 22.3358 15.0345 22.3333 14.5833V7.08333C22.3333 5.93276 21.4006 5 20.25 5H12.75C11.5994 5 10.6667 5.93276 10.6667 7.08333V14.5833C10.6642 15.0345 10.8107 15.4739 11.0833 15.8333H6.08333C4.93276 15.8333 4 16.7661 4 17.9167V25.4167C4 26.5672 4.93276 27.5 6.08333 27.5H13.5833C14.7339 27.5 15.6667 26.5672 15.6667 25.4167V17.9167C15.6691 17.4655 15.5227 17.0261 15.25 16.6667H17.75C17.4773 17.0261 17.3309 17.4655 17.3333 17.9167V25.4167C17.3333 26.5672 18.2661 27.5 19.4167 27.5H26.9167C28.0672 27.5 29 26.5672 29 25.4167V17.9167C29 16.7661 28.0672 15.8333 26.9167 15.8333ZM14.8333 25.4167C14.8333 26.107 14.2737 26.6667 13.5833 26.6667H6.08333C5.39297 26.6667 4.83333 26.107 4.83333 25.4167V17.9167C4.83333 17.2263 5.39297 16.6667 6.08333 16.6667H13.5833C14.2737 16.6667 14.8333 17.2263 14.8333 17.9167V25.4167ZM12.75 15.8333C12.0596 15.8333 11.5 15.2737 11.5 14.5833V7.08333C11.5 6.39297 12.0596 5.83333 12.75 5.83333H20.25C20.9404 5.83333 21.5 6.39297 21.5 7.08333V14.5833C21.5 15.2737 20.9404 15.8333 20.25 15.8333H12.75ZM28.1667 25.4167C28.1667 26.107 27.607 26.6667 26.9167 26.6667H19.4167C18.7263 26.6667 18.1667 26.107 18.1667 25.4167V17.9167C18.1667 17.2263 18.7263 16.6667 19.4167 16.6667H26.9167C27.607 16.6667 28.1667 17.2263 28.1667 17.9167V25.4167Z" fill="#925ADD"/>
<path d="M19.8333 25H19V25.8333H19.8333V25Z" fill="#2BAF5D"/>
<path d="M27.3333 25H26.5V25.8333H27.3333V25Z" fill="#2BAF5D"/>
<path d="M24.8333 25H24V25.8333H24.8333V25Z" fill="#2BAF5D"/>
<path d="M22.3333 25H21.5V25.8333H22.3333V25Z" fill="#2BAF5D"/>
<path d="M23.5833 23.3335H22.75V24.1668H23.5833V23.3335Z" fill="#2BAF5D"/>
<path d="M21.0833 23.3335H20.25V24.1668H21.0833V23.3335Z" fill="#2BAF5D"/>
<path d="M26.0833 23.3335H25.25V24.1668H26.0833V23.3335Z" fill="#2BAF5D"/>
<path d="M13.1673 14.1665H12.334V14.9998H13.1673V14.1665Z" fill="#2BAF5D"/>
<path d="M20.6673 14.1665H19.834V14.9998H20.6673V14.1665Z" fill="#2BAF5D"/>
<path d="M18.1673 14.1665H17.334V14.9998H18.1673V14.1665Z" fill="#2BAF5D"/>
<path d="M15.6673 14.1665H14.834V14.9998H15.6673V14.1665Z" fill="#2BAF5D"/>
<path d="M16.9173 12.5H16.084V13.3333H16.9173V12.5Z" fill="#2BAF5D"/>
<path d="M14.4173 12.5H13.584V13.3333H14.4173V12.5Z" fill="#2BAF5D"/>
<path d="M19.4173 12.5H18.584V13.3333H19.4173V12.5Z" fill="#2BAF5D"/>
</svg>
