<svg width="32" height="32" viewBox="0 0 32 32" fill="none" xmlns="http://www.w3.org/2000/svg">
<path d="M0 6.4C0 2.86538 2.86538 0 6.4 0H25.6C29.1346 0 32 2.86538 32 6.4V25.6C32 29.1346 29.1346 32 25.6 32H6.4C2.86538 32 0 29.1346 0 25.6V6.4Z" fill="#F2F6FF"/>
<mask id="path-2-inside-1_88_5490" fill="white">
<path d="M23.5834 12.3332H9.41701C9.18703 12.3332 9.00037 12.1465 9.00037 11.9165V7.74992C9.00037 5.47204 10.3087 4 12.3336 4H20.2501C22.388 4 24 5.61208 24 7.74992V11.9165C24 12.1465 23.8133 12.3332 23.5834 12.3332ZM23.1667 7.74992C23.1667 6.05997 21.9401 4.83333 20.2501 4.83333H12.3336C10.4903 4.83333 9.8337 6.33999 9.8337 7.74992V11.4998H23.1667V7.74992Z"/>
</mask>
<path d="M23.5834 12.3332H9.41701C9.18703 12.3332 9.00037 12.1465 9.00037 11.9165V7.74992C9.00037 5.47204 10.3087 4 12.3336 4H20.2501C22.388 4 24 5.61208 24 7.74992V11.9165C24 12.1465 23.8133 12.3332 23.5834 12.3332ZM23.1667 7.74992C23.1667 6.05997 21.9401 4.83333 20.2501 4.83333H12.3336C10.4903 4.83333 9.8337 6.33999 9.8337 7.74992V11.4998H23.1667V7.74992Z" fill="#F2F6FF"/>
<path d="M24 11.9165H25H24ZM9.8337 11.4998V12.4998H8.8337V11.4998H9.8337ZM23.1667 11.4998H24.1667V12.4998H23.1667V11.4998ZM23.5834 13.3332H9.41701V11.3332H23.5834V13.3332ZM9.41701 13.3332C8.63475 13.3332 8.00037 12.6988 8.00037 11.9165H10.0004C10.0004 11.5942 9.73932 11.3332 9.41701 11.3332V13.3332ZM8.00037 11.9165V7.74992H10.0004V11.9165H8.00037ZM8.00037 7.74992C8.00037 6.42389 8.38262 5.23124 9.16023 4.3564C9.94852 3.46954 11.0643 3 12.3336 3V5C11.578 5 11.0272 5.26648 10.6551 5.68511C10.2723 6.11576 10.0004 6.79807 10.0004 7.74992H8.00037ZM12.3336 3H20.2501V5H12.3336V3ZM20.2501 3C22.9403 3 25 5.0598 25 7.74992H23C23 6.16435 21.8357 5 20.2501 5V3ZM25 7.74992V11.9165H23V7.74992H25ZM25 11.9165C25 12.6987 24.3657 13.3332 23.5834 13.3332V11.3332C23.261 11.3332 23 11.5943 23 11.9165H25ZM22.1667 7.74992C22.1667 6.61225 21.3878 5.83333 20.2501 5.83333V3.83333C22.4924 3.83333 24.1667 5.50768 24.1667 7.74992H22.1667ZM20.2501 5.83333H12.3336V3.83333H20.2501V5.83333ZM12.3336 5.83333C11.7281 5.83333 11.4093 6.05954 11.2064 6.34379C10.9702 6.67485 10.8337 7.17812 10.8337 7.74992H8.8337C8.8337 6.91179 9.02556 5.95677 9.57844 5.18202C10.1647 4.36045 11.0959 3.83333 12.3336 3.83333V5.83333ZM10.8337 7.74992V11.4998H8.8337V7.74992H10.8337ZM9.8337 10.4998H23.1667V12.4998H9.8337V10.4998ZM22.1667 11.4998V7.74992H24.1667V11.4998H22.1667Z" fill="#925ADD" mask="url(#path-2-inside-1_88_5490)"/>
<path d="M11.0832 8.16661H14.4165C14.4311 8.16661 14.4436 8.17369 14.4577 8.17496C14.6482 7.22122 15.4911 6.5 16.4998 6.5C17.5085 6.5 18.3514 7.22122 18.5418 8.17496C18.556 8.17369 18.5685 8.16661 18.5831 8.16661H21.9164C22.1463 8.16661 22.333 8.35328 22.333 8.58326C22.333 8.81323 22.1463 8.9999 21.9164 8.9999H18.5831C18.5685 8.9999 18.556 8.99282 18.5418 8.99155C18.3514 9.94529 17.5085 10.6665 16.4998 10.6665C15.4911 10.6665 14.6482 9.94529 14.4577 8.99155C14.4436 8.99282 14.4311 8.9999 14.4165 8.9999H11.0832C10.8532 8.9999 10.6666 8.81323 10.6666 8.58326C10.6666 8.35323 10.8532 8.16661 11.0832 8.16661ZM16.4997 9.83323C17.1889 9.83323 17.7497 9.2724 17.7497 8.58326C17.7497 7.89411 17.1889 7.33328 16.4997 7.33328C15.8106 7.33328 15.2498 7.89411 15.2498 8.58326C15.2498 9.2724 15.8106 9.83323 16.4997 9.83323Z" fill="#14964D"/>
<mask id="path-5-inside-2_88_5490" fill="white">
<path d="M23.0917 16.4518C22.8779 17.3605 22.1683 20.2055 21.4292 21.3142C20.8934 22.1175 19.6388 23.9995 16.4993 23.9995C13.3598 23.9995 12.1052 22.1175 11.5695 21.3142C10.8303 20.2055 10.1208 17.3605 9.90699 16.4518C9.38366 16.3027 8.99949 15.8202 8.99949 15.2498V13.5831C8.99949 13.3532 9.18616 13.1665 9.41613 13.1665C9.64611 13.1665 9.83277 13.3532 9.83277 13.5831V15.2498C9.83277 15.4793 10.0198 15.6664 10.2494 15.6664C10.4448 15.6664 10.614 15.8022 10.656 15.9927C10.6602 16.0122 10.8906 17.0364 11.2206 18.1714C11.2294 18.1709 11.2369 18.1664 11.2456 18.1664C11.2764 18.1664 14.3585 18.1572 16.3443 17.3626C16.4443 17.3235 16.5543 17.3235 16.6543 17.3626C18.6367 18.1559 21.7158 18.1664 21.7466 18.1664C21.7575 18.1664 21.7666 18.1718 21.7774 18.1726C22.1079 17.0373 22.3383 16.0123 22.3424 15.9927C22.3845 15.8023 22.5536 15.6664 22.7491 15.6664C22.9787 15.6664 23.1657 15.4794 23.1657 15.2498V13.5832C23.1657 13.3532 23.3524 13.1666 23.5824 13.1666C23.8124 13.1666 23.999 13.3532 23.999 13.5832V15.2498C23.9991 15.8202 23.615 16.3027 23.0917 16.4518ZM16.4993 18.1964C14.6789 18.8759 12.2265 18.9805 11.4744 18.9963C11.7186 19.743 11.9927 20.4463 12.2627 20.8517C12.7635 21.603 13.8056 23.1663 16.4993 23.1663C19.193 23.1663 20.235 21.603 20.7359 20.8517C21.0059 20.4467 21.28 19.7434 21.5238 18.9968C20.78 18.9809 18.3242 18.8776 16.4993 18.1964Z"/>
</mask>
<path d="M23.0917 16.4518C22.8779 17.3605 22.1683 20.2055 21.4292 21.3142C20.8934 22.1175 19.6388 23.9995 16.4993 23.9995C13.3598 23.9995 12.1052 22.1175 11.5695 21.3142C10.8303 20.2055 10.1208 17.3605 9.90699 16.4518C9.38366 16.3027 8.99949 15.8202 8.99949 15.2498V13.5831C8.99949 13.3532 9.18616 13.1665 9.41613 13.1665C9.64611 13.1665 9.83277 13.3532 9.83277 13.5831V15.2498C9.83277 15.4793 10.0198 15.6664 10.2494 15.6664C10.4448 15.6664 10.614 15.8022 10.656 15.9927C10.6602 16.0122 10.8906 17.0364 11.2206 18.1714C11.2294 18.1709 11.2369 18.1664 11.2456 18.1664C11.2764 18.1664 14.3585 18.1572 16.3443 17.3626C16.4443 17.3235 16.5543 17.3235 16.6543 17.3626C18.6367 18.1559 21.7158 18.1664 21.7466 18.1664C21.7575 18.1664 21.7666 18.1718 21.7774 18.1726C22.1079 17.0373 22.3383 16.0123 22.3424 15.9927C22.3845 15.8023 22.5536 15.6664 22.7491 15.6664C22.9787 15.6664 23.1657 15.4794 23.1657 15.2498V13.5832C23.1657 13.3532 23.3524 13.1666 23.5824 13.1666C23.8124 13.1666 23.999 13.3532 23.999 13.5832V15.2498C23.9991 15.8202 23.615 16.3027 23.0917 16.4518ZM16.4993 18.1964C14.6789 18.8759 12.2265 18.9805 11.4744 18.9963C11.7186 19.743 11.9927 20.4463 12.2627 20.8517C12.7635 21.603 13.8056 23.1663 16.4993 23.1663C19.193 23.1663 20.235 21.603 20.7359 20.8517C21.0059 20.4467 21.28 19.7434 21.5238 18.9968C20.78 18.9809 18.3242 18.8776 16.4993 18.1964Z" fill="#F2F6FF"/>
<path d="M23.0917 16.4518L22.1182 16.2228L22.2527 15.6511L22.8176 15.4901L23.0917 16.4518ZM21.4292 21.3142L22.2613 21.8689L22.2611 21.8691L21.4292 21.3142ZM11.5695 21.3142L10.7375 21.8691L10.7374 21.8689L11.5695 21.3142ZM9.90699 16.4518L10.1811 15.4901L10.7459 15.6511L10.8804 16.2228L9.90699 16.4518ZM10.656 15.9927L11.6326 15.7771L11.6343 15.7853L10.656 15.9927ZM11.2206 18.1714L11.2709 19.1701L10.4812 19.2098L10.2604 18.4506L11.2206 18.1714ZM16.3443 17.3626L15.9727 16.4342L15.9796 16.4315L16.3443 17.3626ZM16.6543 17.3626L17.0189 16.4315L17.0258 16.4342L16.6543 17.3626ZM21.7774 18.1726L22.7376 18.4521L22.5106 19.232L21.7007 19.1697L21.7774 18.1726ZM22.3424 15.9927L21.3641 15.7853L21.366 15.7769L22.3424 15.9927ZM23.999 15.2498L22.999 15.25V15.2498H23.999ZM16.4993 18.1964L16.1495 17.2595L16.4993 17.129L16.849 17.2595L16.4993 18.1964ZM11.4744 18.9963L10.5239 19.3072L10.1046 18.0249L11.4534 17.9966L11.4744 18.9963ZM12.2627 20.8517L11.4306 21.4064L11.4304 21.4061L12.2627 20.8517ZM20.7359 20.8517L19.9038 20.297L19.9038 20.297L20.7359 20.8517ZM21.5238 18.9968L21.5451 17.997L22.8927 18.0258L22.4744 19.3071L21.5238 18.9968ZM24.0651 16.6808C23.9558 17.1454 23.7191 18.1082 23.4132 19.1022C23.1195 20.0564 22.722 21.1778 22.2613 21.8689L20.5972 20.7595C20.8756 20.3419 21.2024 19.4865 21.5017 18.5139C21.7888 17.581 22.0138 16.667 22.1182 16.2228L24.0651 16.6808ZM22.2611 21.8691C21.9868 22.2803 21.4585 23.0803 20.5347 23.7625C19.5935 24.4576 18.2877 24.9995 16.4993 24.9995V22.9995C17.8504 22.9995 18.7416 22.6005 19.3466 22.1537C19.9689 21.6941 20.3358 21.1514 20.5973 20.7593L22.2611 21.8691ZM16.4993 24.9995C14.711 24.9995 13.4051 24.4576 12.4639 23.7625C11.5402 23.0803 11.0118 22.2803 10.7375 21.8691L12.4014 20.7593C12.6629 21.1514 13.0297 21.6941 13.6521 22.1537C14.257 22.6005 15.1482 22.9995 16.4993 22.9995V24.9995ZM10.7374 21.8689C10.2767 21.1778 9.87911 20.0564 9.58545 19.1022C9.27954 18.1082 9.04285 17.1454 8.93356 16.6808L10.8804 16.2228C10.9849 16.667 11.2099 17.581 11.497 18.5139C11.7963 19.4865 12.1231 20.3419 12.4015 20.7595L10.7374 21.8689ZM9.63287 17.4135C8.69218 17.1454 7.99949 16.2795 7.99949 15.2498H9.99949C9.99949 15.3608 10.0751 15.4599 10.1811 15.4901L9.63287 17.4135ZM7.99949 15.2498V13.5831H9.99949V15.2498H7.99949ZM7.99949 13.5831C7.99949 12.8009 8.63388 12.1665 9.41613 12.1665V14.1665C9.73844 14.1665 9.99949 13.9055 9.99949 13.5831H7.99949ZM9.41613 12.1665C10.1984 12.1665 10.8328 12.8009 10.8328 13.5831H8.83277C8.83277 13.9055 9.09382 14.1665 9.41613 14.1665V12.1665ZM10.8328 13.5831V15.2498H8.83277V13.5831H10.8328ZM10.8328 15.2498C10.8328 14.9271 10.5721 14.6664 10.2494 14.6664V16.6664C9.46755 16.6664 8.83277 16.0316 8.83277 15.2498H10.8328ZM10.2494 14.6664C10.9132 14.6664 11.4892 15.1277 11.6325 15.7771L9.67956 16.2082C9.73885 16.4768 9.97644 16.6664 10.2494 16.6664V14.6664ZM11.6343 15.7853C11.6341 15.7843 11.8587 16.7841 12.1809 17.8922L10.2604 18.4506C9.92254 17.2886 9.6863 16.2402 9.67778 16.2L11.6343 15.7853ZM11.1704 17.1726C11.094 17.1765 11.0335 17.1886 10.9978 17.197C10.98 17.2012 10.9661 17.205 10.959 17.207C10.9536 17.2086 10.947 17.2105 10.9522 17.209C10.9542 17.2084 10.9644 17.2054 10.9772 17.202C10.9905 17.1984 11.0105 17.1933 11.0348 17.1882C11.0837 17.178 11.1566 17.1664 11.2456 17.1664V19.1664C11.3303 19.1664 11.399 19.1553 11.4438 19.146C11.466 19.1413 11.4839 19.1368 11.4952 19.1337C11.5009 19.1322 11.5056 19.1309 11.5087 19.13C11.5116 19.1292 11.5138 19.1285 11.5141 19.1284C11.5142 19.1284 11.5144 19.1283 11.5138 19.1285C11.5135 19.1286 11.5126 19.1289 11.5116 19.1292C11.5096 19.1297 11.5058 19.1308 11.5011 19.1322C11.492 19.1347 11.4761 19.1391 11.4562 19.1438C11.4164 19.1532 11.3517 19.166 11.2709 19.1701L11.1704 17.1726ZM11.2456 17.1664C11.2405 17.1664 11.9837 17.1647 12.963 17.0674C13.9607 16.9682 15.1139 16.7779 15.9728 16.4342L16.7158 18.2911C15.5888 18.742 14.2081 18.9535 13.1607 19.0576C12.0948 19.1635 11.2816 19.1664 11.2456 19.1664V17.1664ZM15.9796 16.4315C16.314 16.3005 16.6845 16.3005 17.0189 16.4315L16.2896 18.2938C16.424 18.3464 16.5745 18.3464 16.7089 18.2938L15.9796 16.4315ZM17.0258 16.4342C17.883 16.7773 19.0348 16.9676 20.0315 17.0669C21.0097 17.1644 21.7522 17.1664 21.7466 17.1664V19.1664C21.7103 19.1664 20.8978 19.1631 19.8332 19.0571C18.787 18.9528 17.4079 18.7413 16.2827 18.2911L17.0258 16.4342ZM21.7466 17.1664C21.8331 17.1664 21.9046 17.1773 21.9544 17.1874C22.0006 17.1969 22.0373 17.2078 22.0422 17.2092C22.0498 17.2115 22.0426 17.2093 22.0401 17.2087C22.0349 17.2072 22.0231 17.2039 22.0078 17.2001C21.9771 17.1926 21.923 17.1809 21.8541 17.1756L21.7007 19.1697C21.6264 19.164 21.5672 19.1513 21.5314 19.1425C21.5135 19.1381 21.4992 19.1341 21.4915 19.1319C21.4876 19.1308 21.4844 19.1299 21.4829 19.1295C21.4823 19.1293 21.4815 19.129 21.4815 19.129C21.4813 19.129 21.4815 19.129 21.4819 19.1292C21.483 19.1295 21.4915 19.132 21.5028 19.135C21.5146 19.1381 21.5325 19.1425 21.5546 19.1471C21.5993 19.1562 21.6656 19.1664 21.7466 19.1664V17.1664ZM20.8173 17.8932C21.1398 16.785 21.3643 15.7844 21.3642 15.7853L23.3207 16.2001C23.3122 16.2401 23.0759 17.2895 22.7376 18.4521L20.8173 17.8932ZM21.366 15.7769C21.5095 15.1278 22.0851 14.6664 22.7491 14.6664V16.6664C23.0221 16.6664 23.2596 16.4768 23.3189 16.2085L21.366 15.7769ZM22.7491 14.6664C22.4264 14.6664 22.1657 14.9271 22.1657 15.2498H24.1657C24.1657 16.0317 23.531 16.6664 22.7491 16.6664V14.6664ZM22.1657 15.2498V13.5832H24.1657V15.2498H22.1657ZM22.1657 13.5832C22.1657 12.8009 22.8001 12.1666 23.5824 12.1666V14.1666C23.9047 14.1666 24.1657 13.9055 24.1657 13.5832H22.1657ZM23.5824 12.1666C24.3646 12.1666 24.999 12.8009 24.999 13.5832H22.999C22.999 13.9055 23.2601 14.1666 23.5824 14.1666V12.1666ZM24.999 13.5832V15.2498H22.999V13.5832H24.999ZM24.999 15.2496C24.9992 16.2794 24.3065 17.1454 23.3658 17.4135L22.8176 15.4901C22.9235 15.4599 22.999 15.3609 22.999 15.25L24.999 15.2496ZM16.849 19.1332C14.854 19.878 12.2481 19.9803 11.4954 19.9961L11.4534 17.9966C12.2049 17.9808 14.5038 17.8739 16.1495 17.2595L16.849 19.1332ZM12.4249 18.6855C12.6704 19.4364 12.9094 20.0187 13.095 20.2974L11.4304 21.4061C11.076 20.8739 10.7667 20.0496 10.5239 19.3072L12.4249 18.6855ZM13.0948 20.297C13.3411 20.6665 13.6446 21.113 14.1507 21.4848C14.6379 21.8427 15.3642 22.1663 16.4993 22.1663V24.1663C14.9407 24.1663 13.7991 23.7082 12.9666 23.0966C12.1531 22.4989 11.6852 21.7882 11.4306 21.4064L13.0948 20.297ZM16.4993 22.1663C17.6344 22.1663 18.3607 21.8427 18.8479 21.4848C19.3539 21.113 19.6575 20.6665 19.9038 20.297L21.5679 21.4064C21.3134 21.7882 20.8455 22.4989 20.0319 23.0966C19.1995 23.7082 18.0578 24.1663 16.4993 24.1663V22.1663ZM19.9038 20.297C20.0891 20.0191 20.3281 19.437 20.5732 18.6864L22.4744 19.3071C22.2319 20.0498 21.9226 20.8744 21.5679 21.4065L19.9038 20.297ZM21.5025 19.9966C20.7588 19.9807 18.1493 19.8797 16.1496 19.1332L16.849 17.2595C18.4992 17.8755 20.8013 17.9811 21.5451 17.997L21.5025 19.9966Z" fill="#925ADD" mask="url(#path-5-inside-2_88_5490)"/>
<path d="M4.4959 28.6089L4.49583 28.6091L4.49576 28.6094C4.49581 28.6092 4.49586 28.6091 4.4959 28.6089Z" fill="#F2F6FF" stroke="#925ADD"/>
<mask id="path-8-inside-3_88_5490" fill="white">
<path d="M15.2504 14.8335C15.4803 14.8335 15.667 15.0202 15.667 15.2501C15.667 15.4801 15.4803 15.6668 15.2504 15.6668H14.8337C14.8337 15.8968 14.647 16.0834 14.4171 16.0834C14.1871 16.0834 14.0004 15.8968 14.0004 15.6668H13.5838C13.3538 15.6668 13.1671 15.4801 13.1671 15.2501C13.1671 15.0202 13.3538 14.8335 13.5838 14.8335H15.2504Z"/>
</mask>
<path d="M15.2504 14.8335C15.4803 14.8335 15.667 15.0202 15.667 15.2501C15.667 15.4801 15.4803 15.6668 15.2504 15.6668H14.8337C14.8337 15.8968 14.647 16.0834 14.4171 16.0834C14.1871 16.0834 14.0004 15.8968 14.0004 15.6668H13.5838C13.3538 15.6668 13.1671 15.4801 13.1671 15.2501C13.1671 15.0202 13.3538 14.8335 13.5838 14.8335H15.2504Z" fill="#F2F6FF"/>
<path d="M14.8337 15.6668H13.8337V14.6668H14.8337V15.6668ZM14.0004 15.6668V14.6668H15.0004V15.6668H14.0004ZM15.2504 13.8335C16.0326 13.8335 16.667 14.4679 16.667 15.2501H14.667C14.667 15.5724 14.928 15.8335 15.2504 15.8335V13.8335ZM16.667 15.2501C16.667 16.0324 16.0326 16.6668 15.2504 16.6668V14.6668C14.928 14.6668 14.667 14.9278 14.667 15.2501H16.667ZM15.2504 16.6668H14.8337V14.6668H15.2504V16.6668ZM15.8337 15.6668C15.8337 16.449 15.1993 17.0834 14.4171 17.0834V15.0834C14.0948 15.0834 13.8337 15.3445 13.8337 15.6668H15.8337ZM14.4171 17.0834C13.6348 17.0834 13.0004 16.449 13.0004 15.6668H15.0004C15.0004 15.3445 14.7394 15.0834 14.4171 15.0834V17.0834ZM14.0004 16.6668H13.5838V14.6668H14.0004V16.6668ZM13.5838 16.6668C12.8015 16.6668 12.1671 16.0324 12.1671 15.2501H14.1671C14.1671 14.9278 13.9061 14.6668 13.5838 14.6668V16.6668ZM12.1671 15.2501C12.1671 14.4679 12.8015 13.8335 13.5838 13.8335V15.8335C13.9061 15.8335 14.1671 15.5724 14.1671 15.2501H12.1671ZM13.5838 13.8335H15.2504V15.8335H13.5838V13.8335Z" fill="#925ADD" mask="url(#path-8-inside-3_88_5490)"/>
<mask id="path-10-inside-4_88_5490" fill="white">
<path d="M19.4164 14.8335C19.6463 14.8335 19.833 15.0202 19.833 15.2501C19.833 15.4801 19.6463 15.6668 19.4164 15.6668H18.9997C18.9997 15.8968 18.8131 16.0834 18.5831 16.0834C18.3531 16.0834 18.1664 15.8968 18.1664 15.6668H17.7498C17.5198 15.6668 17.3332 15.4801 17.3332 15.2501C17.3332 15.0202 17.5198 14.8335 17.7498 14.8335H19.4164Z"/>
</mask>
<path d="M19.4164 14.8335C19.6463 14.8335 19.833 15.0202 19.833 15.2501C19.833 15.4801 19.6463 15.6668 19.4164 15.6668H18.9997C18.9997 15.8968 18.8131 16.0834 18.5831 16.0834C18.3531 16.0834 18.1664 15.8968 18.1664 15.6668H17.7498C17.5198 15.6668 17.3332 15.4801 17.3332 15.2501C17.3332 15.0202 17.5198 14.8335 17.7498 14.8335H19.4164Z" fill="#F2F6FF"/>
<path d="M18.9997 15.6668H17.9997V14.6668H18.9997V15.6668ZM18.1664 15.6668V14.6668H19.1664V15.6668H18.1664ZM19.4164 13.8335C20.1986 13.8335 20.833 14.4679 20.833 15.2501H18.833C18.833 15.5724 19.0941 15.8335 19.4164 15.8335V13.8335ZM20.833 15.2501C20.833 16.0324 20.1986 16.6668 19.4164 16.6668V14.6668C19.0941 14.6668 18.833 14.9278 18.833 15.2501H20.833ZM19.4164 16.6668H18.9997V14.6668H19.4164V16.6668ZM19.9997 15.6668C19.9997 16.449 19.3653 17.0834 18.5831 17.0834V15.0834C18.2608 15.0834 17.9997 15.3445 17.9997 15.6668H19.9997ZM18.5831 17.0834C17.8008 17.0834 17.1664 16.449 17.1664 15.6668H19.1664C19.1664 15.3445 18.9054 15.0834 18.5831 15.0834V17.0834ZM18.1664 16.6668H17.7498V14.6668H18.1664V16.6668ZM17.7498 16.6668C16.9675 16.6668 16.3332 16.0324 16.3332 15.2501H18.3332C18.3332 14.9278 18.0721 14.6668 17.7498 14.6668V16.6668ZM16.3332 15.2501C16.3332 14.4679 16.9675 13.8335 17.7498 13.8335V15.8335C18.0721 15.8335 18.3332 15.5724 18.3332 15.2501H16.3332ZM17.7498 13.8335H19.4164V15.8335H17.7498V13.8335Z" fill="#925ADD" mask="url(#path-10-inside-4_88_5490)"/>
</svg>
