<svg width="32" height="32" viewBox="0 0 32 32" fill="none" xmlns="http://www.w3.org/2000/svg">
<path d="M0 6.4C0 2.86538 2.86538 0 6.4 0H25.6C29.1346 0 32 2.86538 32 6.4V25.6C32 29.1346 29.1346 32 25.6 32H6.4C2.86538 32 0 29.1346 0 25.6V6.4Z" fill="#F2F6FF"/>
<g clip-path="url(#clip0_88_5626)">
<path d="M25.5629 9.09692L22.9018 6.42943C22.3323 5.85968 21.3332 5.85932 20.7597 6.4331L9.7613 17.7649C9.3302 18.196 9.3302 18.6611 9.3302 19.0008V20.3343C9.3302 20.5297 9.31688 20.5427 9.0945 20.7654L6.42732 23.4326C5.85756 24.0021 5.85756 25.0016 6.42732 25.571C6.71202 25.8557 7.10412 25.9981 7.4965 25.9981C7.88892 25.9981 8.28098 25.8557 8.56569 25.571L10.8994 23.2373C11.0298 23.1069 11.0298 22.8962 10.8994 22.7659C10.7691 22.6355 10.5584 22.6355 10.428 22.7659L8.09427 25.0996C7.78687 25.407 7.2061 25.407 6.89869 25.0996C6.58598 24.7865 6.58598 24.2168 6.89869 23.904L9.56587 21.2369C9.81627 20.9868 9.99697 20.8058 9.99697 20.3343V19.0008C9.99697 18.7054 9.99697 18.472 10.2364 18.2326L21.2348 6.90085C21.3868 6.74883 21.5979 6.66545 21.8295 6.66545H21.8369C22.0659 6.66713 22.2826 6.75312 22.43 6.9005L25.0912 9.56799C25.2479 9.72435 25.3339 9.93704 25.3332 10.1668C25.3329 10.3958 25.2469 10.6079 25.0948 10.7602L13.7621 21.7656C13.5263 22.0013 13.3046 22.0013 12.9976 22.0013H11.664C11.4796 22.0013 11.3306 22.1507 11.3306 22.3347C11.3306 22.5187 11.4796 22.6681 11.664 22.6681H12.9976C13.356 22.6681 13.8024 22.6681 14.2298 22.2404L25.5629 11.235C25.844 10.9539 25.9993 10.5749 26 10.1681C26.001 9.7597 25.8456 9.37932 25.5629 9.09692Z" fill="#925ADD"/>
<path d="M7.42785 24.5702C7.49286 24.6353 7.57823 24.6679 7.66356 24.6679C7.74889 24.6679 7.83425 24.6353 7.89927 24.5702L21.2351 11.2344C21.3654 11.104 21.3654 10.8933 21.2351 10.763L20.2349 9.76282C20.1045 9.63245 19.8938 9.63245 19.7635 9.76282C19.6331 9.89316 19.6331 10.1039 19.7635 10.2342L20.528 10.9987L19.6658 11.8609L19.2347 11.4298C19.1043 11.2994 18.8936 11.2994 18.7633 11.4298C18.6329 11.5602 18.6329 11.7709 18.7633 11.9012L19.1944 12.3323L18.3322 13.1944L17.9011 12.7633C17.7708 12.633 17.5601 12.633 17.4297 12.7633C17.2994 12.8937 17.2994 13.1044 17.4297 13.2348L17.8608 13.6659L16.9987 14.528L16.2342 13.7635C16.1038 13.6332 15.8931 13.6332 15.7628 13.7635C15.6324 13.8939 15.6324 14.1046 15.7628 14.2349L16.5273 14.9994L15.6651 15.8616L15.234 15.4305C15.1036 15.3001 14.8929 15.3001 14.7626 15.4305C14.6322 15.5609 14.6322 15.7716 14.7626 15.9019L15.1937 16.333L14.3315 17.1952L13.9004 16.7641C13.7701 16.6337 13.5594 16.6337 13.429 16.7641C13.2986 16.8944 13.2986 17.1051 13.429 17.2355L13.8601 17.6666L12.998 18.5287L12.2335 17.7642C12.1031 17.6339 11.8924 17.6339 11.7621 17.7642C11.6317 17.8946 11.6317 18.1053 11.7621 18.2357L12.5265 19.0001L7.42793 24.0988C7.29747 24.2292 7.29747 24.4399 7.42785 24.5702Z" fill="#14964D"/>
</g>
<defs>
<clipPath id="clip0_88_5626">
<rect width="20" height="20" fill="white" transform="translate(6 6)"/>
</clipPath>
</defs>
</svg>
