<svg width="32" height="32" viewBox="0 0 32 32" fill="none" xmlns="http://www.w3.org/2000/svg">
<path d="M0 6.4C0 2.86538 2.86538 0 6.4 0H25.6C29.1346 0 32 2.86538 32 6.4V25.6C32 29.1346 29.1346 32 25.6 32H6.4C2.86538 32 0 29.1346 0 25.6V6.4Z" fill="#F2F6FF"/>
<path fill-rule="evenodd" clip-rule="evenodd" d="M14.5869 6V6.00218H17.7411C17.9103 6.02177 18.0208 6.17127 18.0208 6.34978V7.67718H18.3654C18.457 7.67718 18.5448 7.71378 18.6096 7.77892C18.6744 7.84406 18.7107 7.93241 18.7107 8.02453V9.84457C18.7107 9.88652 18.7025 9.92806 18.6866 9.96682C18.6706 10.0056 18.6472 10.0408 18.6177 10.0705C18.5882 10.1001 18.5532 10.1237 18.5147 10.1397C18.4761 10.1558 18.4348 10.164 18.3931 10.164H18.0208V11.0347C18.0275 12.8339 18.4433 14.6077 19.2362 16.2203L22.6192 23.0905C22.8111 23.4742 22.9009 23.9014 22.8799 24.3304C22.859 24.7595 22.728 25.1757 22.4997 25.5387C22.282 25.88 21.9821 26.1605 21.6279 26.3542C21.2737 26.5478 20.8767 26.6485 20.4735 26.6467H11.4123C11.0089 26.6485 10.6115 26.5479 10.257 26.3543C9.90252 26.1606 9.60231 25.8801 9.38419 25.5388C9.15563 25.1763 9.02433 24.7604 9.00307 24.3317C8.98181 23.9029 9.07132 23.476 9.26287 23.0924L12.6288 16.2213C13.4153 14.6068 13.8241 12.8327 13.8236 11.0347V10.164H13.457C13.4145 10.164 13.3725 10.1556 13.3333 10.1393C13.294 10.123 13.2584 10.099 13.2284 10.0688C13.1983 10.0386 13.1745 10.0028 13.1583 9.9633C13.142 9.92384 13.1337 9.88155 13.1337 9.83884V8.03824C13.134 7.94257 13.1719 7.8509 13.2391 7.78325C13.3064 7.71561 13.3975 7.67747 13.4926 7.67718H13.8236V6.34978C13.8268 6.25601 13.866 6.16713 13.933 6.10188C14 6.03662 14.0896 6.0001 14.1829 6H14.5869ZM22.1937 24.2675C22.2033 23.9684 22.1382 23.6717 22.0041 23.4046L20.0005 19.3217C19.7703 19.3511 19.5477 19.4246 19.3451 19.5384C19.0586 19.6804 18.7336 19.8414 18.1144 19.8414C17.4953 19.8414 17.1706 19.6805 16.8841 19.5385L16.884 19.5384L16.8834 19.5381C16.633 19.4142 16.4166 19.3071 15.9583 19.3071C15.4996 19.3071 15.2832 19.4142 15.0326 19.5384C14.7464 19.6804 14.4215 19.8413 13.8022 19.8413C13.1836 19.8413 12.8589 19.6804 12.5726 19.5384L12.5718 19.538C12.3693 19.4375 12.1892 19.3483 11.8864 19.3176L9.88164 23.4046C9.7476 23.6717 9.68242 23.9684 9.69208 24.2675C9.70174 24.5665 9.78595 24.8583 9.93695 25.1161C10.0895 25.3724 10.3057 25.5843 10.5644 25.731C10.8231 25.8777 11.1153 25.9541 11.4123 25.9527H20.4735C20.7705 25.9541 21.0627 25.8776 21.3214 25.7309C21.58 25.5843 21.7963 25.3723 21.9488 25.1161C22.0998 24.8583 22.184 24.5665 22.1937 24.2675ZM18.0208 9.47003V8.37119H13.8236V9.47003H14.3986C14.4437 9.4701 14.4884 9.47915 14.53 9.49665C14.5716 9.51416 14.6094 9.53978 14.6411 9.57204C14.6728 9.60429 14.6979 9.64255 14.7149 9.6846C14.7319 9.72665 14.7404 9.77166 14.74 9.81704C14.7392 9.88703 14.7175 9.95518 14.6778 10.0127C14.6382 10.0702 14.5822 10.1144 14.5173 10.1396C14.5171 10.1551 14.5158 10.1705 14.5136 10.1858V11.0347C14.5137 12.9392 14.0804 14.8183 13.247 16.5283L12.2057 18.6662C12.4396 18.7181 12.6652 18.8022 12.8763 18.916L12.8776 18.9167C13.1278 19.0405 13.3439 19.1474 13.802 19.1474C14.2609 19.1474 14.4772 19.0403 14.7277 18.916L14.7284 18.9157C15.0147 18.7738 15.3389 18.613 15.9581 18.613C16.5772 18.613 16.9015 18.7738 17.1878 18.9157L17.1885 18.916L17.1903 18.917C17.4401 19.0406 17.6557 19.1474 18.1132 19.1474C18.5706 19.1474 18.7854 19.0409 19.0351 18.9171L19.0372 18.916C19.2384 18.8071 19.453 18.7251 19.6754 18.6722L18.6175 16.5283C17.7778 14.8197 17.3377 12.9406 17.3308 11.0347V10.164H16.6984C16.6069 10.164 16.5192 10.1275 16.4545 10.0624C16.3898 9.99733 16.3534 9.90907 16.3534 9.81704C16.3534 9.72501 16.3898 9.63674 16.4545 9.57167C16.5192 9.50659 16.6069 9.47003 16.6984 9.47003H18.0208ZM17.3308 7.67718V6.69401H14.5136V7.67718H17.3308Z" fill="#925ADD"/>
</svg>
