<svg width="32" height="32" viewBox="0 0 32 32" fill="none" xmlns="http://www.w3.org/2000/svg">
<path d="M0 6.4C0 2.86538 2.86538 0 6.4 0H25.6C29.1346 0 32 2.86538 32 6.4V25.6C32 29.1346 29.1346 32 25.6 32H6.4C2.86538 32 0 29.1346 0 25.6V6.4Z" fill="#F2F6FF"/>
<path d="M7.26792 20.6927C7.05166 20.6152 6.81294 20.7298 6.73667 20.9469C6.57959 21.3919 6.5 21.8581 6.5 22.3335C6.5 22.8256 6.58501 23.3077 6.75332 23.7664C6.81499 23.9356 6.97456 24.0402 7.14458 24.0402C7.19209 24.0402 7.24043 24.0318 7.2875 24.0147C7.50376 23.9356 7.61499 23.696 7.53584 23.4802C7.40127 23.1135 7.33335 22.7277 7.33335 22.3335C7.33335 21.9531 7.39712 21.5797 7.52212 21.2239C7.59873 21.0073 7.48501 20.7694 7.26792 20.6927Z" fill="#14964D"/>
<mask id="path-3-inside-1_88_5503" fill="white">
<path d="M22.3333 4C20.5567 4 18.8812 4.69165 17.6146 5.94834L12.9321 10.6342C12.7696 10.7967 12.7696 11.0608 12.9321 11.2233C13.095 11.3858 13.3587 11.3862 13.5217 11.2233L18.2029 6.53877C19.3113 5.43921 20.7779 4.83335 22.3333 4.83335C25.5496 4.83335 28.1667 7.45 28.1667 10.6667C28.1667 12.225 27.5601 13.6896 26.458 14.7913C26.4567 14.7925 26.4555 14.7942 26.4538 14.7954C26.3459 14.9046 22.0892 19.1592 20.9188 20.3291L12.3758 11.78C12.2975 11.7017 12.1913 11.6579 12.0808 11.6579C11.9704 11.6579 11.8646 11.7017 11.7862 11.78L6.20249 17.3684C6.11206 17.4592 6.02705 17.5442 5.96001 17.6271L5.95249 17.6196C4.69331 18.8783 4 20.5525 4 22.3333C4 26.0092 6.99043 29 10.6667 29C12.4696 29 14.1596 28.2892 15.4221 27.0021L20.0675 22.3592C20.23 22.1967 20.23 21.9329 20.0675 21.77C19.905 21.6071 19.6408 21.6075 19.4783 21.7696L14.83 26.4154C13.7225 27.5446 12.2438 28.1667 10.6667 28.1667C7.45 28.1667 4.8333 25.55 4.8333 22.3333C4.8333 20.775 5.43999 19.3104 6.54165 18.2088L6.5479 18.2021C6.6604 18.0883 10.0554 14.6904 12.0808 12.6638L20.6321 21.2217H20.6325C20.795 21.3846 21.0588 21.3846 21.2217 21.2217C21.2458 21.1975 21.2667 21.1709 21.2837 21.1425L26.7967 15.6317C26.8875 15.5404 26.9725 15.4554 27.0396 15.3729L27.0471 15.3805C28.3062 14.1217 29 12.4475 29 10.6667C29 6.99082 26.0092 4 22.3333 4Z"/>
</mask>
<path d="M22.3333 4C20.5567 4 18.8812 4.69165 17.6146 5.94834L12.9321 10.6342C12.7696 10.7967 12.7696 11.0608 12.9321 11.2233C13.095 11.3858 13.3587 11.3862 13.5217 11.2233L18.2029 6.53877C19.3113 5.43921 20.7779 4.83335 22.3333 4.83335C25.5496 4.83335 28.1667 7.45 28.1667 10.6667C28.1667 12.225 27.5601 13.6896 26.458 14.7913C26.4567 14.7925 26.4555 14.7942 26.4538 14.7954C26.3459 14.9046 22.0892 19.1592 20.9188 20.3291L12.3758 11.78C12.2975 11.7017 12.1913 11.6579 12.0808 11.6579C11.9704 11.6579 11.8646 11.7017 11.7862 11.78L6.20249 17.3684C6.11206 17.4592 6.02705 17.5442 5.96001 17.6271L5.95249 17.6196C4.69331 18.8783 4 20.5525 4 22.3333C4 26.0092 6.99043 29 10.6667 29C12.4696 29 14.1596 28.2892 15.4221 27.0021L20.0675 22.3592C20.23 22.1967 20.23 21.9329 20.0675 21.77C19.905 21.6071 19.6408 21.6075 19.4783 21.7696L14.83 26.4154C13.7225 27.5446 12.2438 28.1667 10.6667 28.1667C7.45 28.1667 4.8333 25.55 4.8333 22.3333C4.8333 20.775 5.43999 19.3104 6.54165 18.2088L6.5479 18.2021C6.6604 18.0883 10.0554 14.6904 12.0808 12.6638L20.6321 21.2217H20.6325C20.795 21.3846 21.0588 21.3846 21.2217 21.2217C21.2458 21.1975 21.2667 21.1709 21.2837 21.1425L26.7967 15.6317C26.8875 15.5404 26.9725 15.4554 27.0396 15.3729L27.0471 15.3805C28.3062 14.1217 29 12.4475 29 10.6667C29 6.99082 26.0092 4 22.3333 4Z" fill="#F2F6FF"/>
<path d="M17.6146 5.94834L16.9103 5.23844L16.9072 5.24148L17.6146 5.94834ZM12.9321 10.6342L13.6392 11.3413L13.6394 11.341L12.9321 10.6342ZM12.9321 11.2233L12.225 11.9304L12.2259 11.9314L12.9321 11.2233ZM13.5217 11.2233L14.2287 11.9306L14.229 11.9302L13.5217 11.2233ZM18.2029 6.53877L17.4986 5.82885L17.4956 5.83191L18.2029 6.53877ZM26.458 14.7913L25.751 14.084L25.7509 14.0842L26.458 14.7913ZM26.4538 14.7954L25.8614 13.9898L25.798 14.0364L25.7426 14.0925L26.4538 14.7954ZM20.9188 20.3291L20.2114 21.036L20.9184 21.7435L21.6258 21.0364L20.9188 20.3291ZM12.3758 11.78L13.0832 11.0731L13.0829 11.0729L12.3758 11.78ZM11.7862 11.78L11.0791 11.0729L11.0788 11.0732L11.7862 11.78ZM6.20249 17.3684L5.49509 16.6615L5.49386 16.6628L6.20249 17.3684ZM5.96001 17.6271L5.25285 18.3342L6.03874 19.1202L6.73761 18.2559L5.96001 17.6271ZM5.95249 17.6196L6.65965 16.9125L5.95267 16.2054L5.24551 16.9123L5.95249 17.6196ZM15.4221 27.0021L14.7151 26.2948L14.7082 26.3018L15.4221 27.0021ZM20.0675 22.3592L20.7744 23.0665L20.7746 23.0663L20.0675 22.3592ZM20.0675 21.77L19.3594 22.4762L19.3595 22.4763L20.0675 21.77ZM19.4783 21.7696L18.7722 21.0615L18.7714 21.0623L19.4783 21.7696ZM14.83 26.4154L14.123 25.7081L14.1161 25.7152L14.83 26.4154ZM6.54165 18.2088L7.24876 18.9159L7.26076 18.9039L7.27234 18.8915L6.54165 18.2088ZM6.5479 18.2021L5.83684 17.499L5.82688 17.509L5.81721 17.5194L6.5479 18.2021ZM12.0808 12.6638L12.7882 11.9569L12.0809 11.2491L11.3735 11.9569L12.0808 12.6638ZM20.6321 21.2217L19.9247 21.9285L20.2176 22.2217H20.6321V21.2217ZM20.6325 21.2217L21.3405 20.5154L21.0474 20.2217H20.6325V21.2217ZM21.2837 21.1425L20.5768 20.4353L20.4901 20.5219L20.4269 20.6269L21.2837 21.1425ZM26.7967 15.6317L27.5037 16.3389L27.5055 16.3371L26.7967 15.6317ZM27.0396 15.3729L27.7467 14.6659L26.9632 13.8822L26.2639 14.7419L27.0396 15.3729ZM27.0471 15.3805L26.34 16.0875L27.047 16.7946L27.7541 16.0877L27.0471 15.3805ZM22.3333 3C20.2916 3 18.3634 3.79677 16.9103 5.23845L18.3189 6.65823C19.3991 5.58653 20.8217 5 22.3333 5V3ZM16.9072 5.24148L12.2247 9.92732L13.6394 11.341L18.322 6.6552L16.9072 5.24148ZM12.225 9.92707C11.6719 10.4801 11.6719 11.3774 12.225 11.9304L13.6392 10.5162C13.8672 10.7443 13.8672 11.1133 13.6392 11.3413L12.225 9.92707ZM12.2259 11.9314C12.7781 12.4821 13.6742 12.4849 14.2287 11.9306L12.8147 10.5161C13.0433 10.2876 13.4119 10.2896 13.6382 10.5153L12.2259 11.9314ZM14.229 11.9302L18.9103 7.24563L17.4956 5.83191L12.8143 10.5165L14.229 11.9302ZM18.9072 7.24869C19.8292 6.33402 21.0431 5.83335 22.3333 5.83335V3.83335C20.5128 3.83335 18.7934 4.5444 17.4986 5.82885L18.9072 7.24869ZM22.3333 5.83335C24.9974 5.83335 27.1667 8.00233 27.1667 10.6667H29.1667C29.1667 6.89767 26.1018 3.83335 22.3333 3.83335V5.83335ZM27.1667 10.6667C27.1667 11.9598 26.6654 13.17 25.751 14.084L27.1649 15.4985C28.4547 14.2092 29.1667 12.4903 29.1667 10.6667H27.1667ZM25.7509 14.0842C25.7318 14.1032 25.7175 14.1191 25.7147 14.1222C25.7137 14.1233 25.7129 14.1242 25.7128 14.1243C25.7124 14.1248 25.7129 14.1242 25.7133 14.1237C25.7143 14.1227 25.7175 14.1191 25.7217 14.1146C25.7359 14.0992 25.7858 14.0454 25.8614 13.9898L27.0462 15.6011C27.1235 15.5442 27.1748 15.489 27.1904 15.4721C27.1959 15.4662 27.2069 15.454 27.1993 15.4624C27.1971 15.4648 27.1835 15.4799 27.1651 15.4984L25.7509 14.0842ZM25.7426 14.0925C25.7425 14.0925 25.7426 14.0925 25.7425 14.0926C25.7423 14.0927 25.7423 14.0927 25.7421 14.0929C25.7418 14.0932 25.7414 14.0936 25.7409 14.0941C25.7399 14.0951 25.7386 14.0965 25.7369 14.0982C25.7335 14.1016 25.7291 14.106 25.7236 14.1115C25.7126 14.1225 25.6977 14.1375 25.6791 14.1561C25.6419 14.1934 25.5902 14.2451 25.5257 14.3096C25.3968 14.4386 25.2172 14.6182 25.0009 14.8345C24.5685 15.2669 23.9897 15.8455 23.3778 16.4573C22.1538 17.6808 20.7971 19.0368 20.2118 19.6219L21.6258 21.0364C22.7934 19.8692 27.0543 15.6104 27.165 15.4984L25.7426 14.0925ZM21.6262 19.6223L13.0832 11.0731L11.6685 12.4868L20.2114 21.036L21.6262 19.6223ZM13.0829 11.0729C12.8162 10.8062 12.4553 10.6579 12.0808 10.6579V12.6579C11.9272 12.6579 11.7788 12.5972 11.6687 12.4871L13.0829 11.0729ZM12.0808 10.6579C11.7053 10.6579 11.3451 10.8069 11.0791 11.0729L12.4933 12.4871C12.384 12.5964 12.2355 12.6579 12.0808 12.6579V10.6579ZM11.0788 11.0732L5.49509 16.6615L6.90989 18.0752L12.4936 12.4868L11.0788 11.0732ZM5.49386 16.6628C5.41496 16.742 5.28883 16.8667 5.18241 16.9983L6.73761 18.2559C6.76527 18.2216 6.80916 18.1763 6.91112 18.0739L5.49386 16.6628ZM6.66717 16.92L6.65965 16.9125L5.24533 18.3266L5.25285 18.3342L6.66717 16.92ZM5.24551 16.9123C3.7986 18.3587 3 20.2874 3 22.3333H5C5 20.8176 5.58802 19.3979 6.65947 18.3268L5.24551 16.9123ZM3 22.3333C3 26.5614 6.43811 30 10.6667 30V28C7.54275 28 5 25.4569 5 22.3333H3ZM10.6667 30C12.7386 30 14.6857 29.1808 16.136 27.7024L14.7082 26.3018C13.6334 27.3975 12.2005 28 10.6667 28V30ZM16.129 27.7094L20.7744 23.0665L19.3606 21.6519L14.7152 26.2948L16.129 27.7094ZM20.7746 23.0663C21.3281 22.5128 21.3269 21.6165 20.7754 21.0638L19.3595 22.4763C19.1331 22.2493 19.1319 21.8806 19.3604 21.6521L20.7746 23.0663ZM20.7755 21.0639C20.2212 20.5081 19.3239 20.5113 18.7722 21.0615L20.1845 22.4776C19.9577 22.7038 19.5887 22.7061 19.3594 22.4762L20.7755 21.0639ZM18.7714 21.0623L14.1231 25.7081L15.5369 27.1227L20.1852 22.4769L18.7714 21.0623ZM14.1161 25.7152C13.1959 26.6533 11.9742 27.1667 10.6667 27.1667V29.1667C12.5133 29.1667 14.249 28.4359 15.5439 27.1157L14.1161 25.7152ZM10.6667 27.1667C8.00228 27.1667 5.8333 24.9978 5.8333 22.3333H3.8333C3.8333 26.1023 6.89772 29.1667 10.6667 29.1667V27.1667ZM5.8333 22.3333C5.8333 21.0402 6.33464 19.83 7.24876 18.9159L5.83454 17.5017C4.54534 18.7909 3.8333 20.5098 3.8333 22.3333H5.8333ZM7.27234 18.8915L7.27859 18.8848L5.81721 17.5194L5.81096 17.5261L7.27234 18.8915ZM7.25896 18.9052C7.36898 18.794 10.7605 15.3995 12.7881 13.3707L11.3735 11.9569C9.35031 13.9813 5.95182 17.3827 5.83684 17.499L7.25896 18.9052ZM11.3734 13.3706L19.9247 21.9285L21.3395 20.5148L12.7882 11.9569L11.3734 13.3706ZM20.6321 22.2217H20.6325V20.2217H20.6321V22.2217ZM19.9246 21.9279C20.4783 22.483 21.3758 22.4817 21.9288 21.9288L20.5146 20.5146C20.7417 20.2874 21.1118 20.2862 21.3405 20.5154L19.9246 21.9279ZM21.9288 21.9288C22.0094 21.8482 22.0808 21.7574 22.1406 21.6581L20.4269 20.6269C20.4526 20.5843 20.4823 20.5469 20.5146 20.5146L21.9288 21.9288ZM21.9907 21.8498L27.5037 16.3389L26.0897 14.9244L20.5768 20.4353L21.9907 21.8498ZM27.5055 16.3371C27.5848 16.2574 27.7099 16.1336 27.8153 16.004L26.2639 14.7419C26.2351 14.7772 26.1902 14.8234 26.0879 14.9263L27.5055 16.3371ZM26.3325 16.08L26.34 16.0875L27.7543 14.6734L27.7467 14.6659L26.3325 16.08ZM27.7541 16.0877C29.2008 14.6414 30 12.7128 30 10.6667H28C28 12.1822 27.4117 13.602 26.3401 14.6733L27.7541 16.0877ZM30 10.6667C30 6.43854 26.5615 3 22.3333 3V5C25.4569 5 28 7.54311 28 10.6667H30Z" fill="#925ADD" mask="url(#path-3-inside-1_88_5503)"/>
<path d="M25.6668 10.6665C25.6668 10.8965 25.853 11.0832 26.0835 11.0832C26.3134 11.0832 26.5001 10.8965 26.5001 10.6665C26.5001 9.29403 25.8238 8.00946 24.6918 7.23114C24.503 7.10155 24.243 7.14906 24.1122 7.33866C23.9822 7.52826 24.0301 7.78739 24.2197 7.91781C25.1256 8.54071 25.6668 9.5682 25.6668 10.6665Z" fill="#14964D"/>
</svg>
