<svg width="32" height="32" viewBox="0 0 32 32" fill="none" xmlns="http://www.w3.org/2000/svg">
<rect width="32" height="32" rx="3" fill="#F2F6FF"/>
<path d="M19.3333 10C19.2253 10 19.1153 10.0043 19 10.0133V10C19 7.83168 17.1683 6 15 6H12C11.4486 6 11 6.44867 11 7C11 7.55133 11.4486 8 12 8H15C16.103 8 17 8.89699 17 10V10.5833C16.502 10.8473 16.0489 11.1953 15.6673 11.6063C15.2793 11.1857 14.8266 10.8446 14.3333 10.583V10C14.3333 9.70633 14.4 9.41801 14.5313 9.14398C14.6107 8.97797 14.5403 8.77863 14.3743 8.69934C14.2087 8.61969 14.0093 8.69 13.93 8.85602C13.7554 9.22102 13.6667 9.60566 13.6667 10V10.2903C13.4493 10.2133 13.2277 10.1477 13 10.1016V10C13 9.69699 13.0443 9.39199 13.1317 9.09367C13.1837 8.91699 13.0823 8.73199 12.9057 8.68035C12.7296 8.62836 12.544 8.72934 12.492 8.90637C12.3866 9.26535 12.3333 9.63336 12.3333 10V10.0174C12.2227 10.01 12.1123 10 12 10C9.24301 10 7 12.243 7 15C7 18.0354 9.62898 22.6004 15.5013 25.9561C15.5527 25.9854 15.6096 26 15.6667 26C15.724 26 15.781 25.9854 15.832 25.9561C21.7047 22.6004 24.3334 18.0354 24.3334 15C24.3333 12.243 22.0903 10 19.3333 10ZM20.5693 20.7643H20.5689L19.2356 19.431C19.1056 19.3007 18.8946 19.3007 18.7643 19.431C18.6343 19.5613 18.6343 19.772 18.7643 19.9023L19.5286 20.6667H18.6666C18.4826 20.6667 18.3333 20.816 18.3333 21C18.3333 21.184 18.4826 21.3333 18.6666 21.3333H20.1953L20.4276 21.5653C19.2076 22.8613 17.6339 24.138 15.6666 25.282C11.6453 22.9437 9.2466 20.055 8.23492 17.5696L8.47125 17.3333H9.99992C10.1843 17.3333 10.3332 17.184 10.3332 17C10.3332 16.816 10.1843 16.6667 9.99992 16.6667H9.13793L9.90227 15.9023C10.0326 15.772 10.0326 15.5613 9.90227 15.431C9.77227 15.3007 9.56125 15.3007 9.43094 15.431L8.09793 16.764L8.09758 16.7644L7.98457 16.8774C7.77492 16.2067 7.6666 15.5727 7.6666 15C7.6666 12.6107 9.61059 10.6667 11.9999 10.6667C12.1803 10.6667 12.3586 10.6797 12.5346 10.7013C12.5753 10.719 12.6196 10.7293 12.6666 10.7293C12.6716 10.7293 12.6756 10.7267 12.6803 10.7263C13.0853 10.7907 13.4766 10.9073 13.8429 11.0803C13.8606 11.09 13.8786 11.098 13.8986 11.1043C14.4762 11.3873 14.9916 11.8003 15.4046 12.3253C15.5313 12.486 15.8023 12.486 15.9286 12.3253C16.3382 11.8046 16.8736 11.377 17.4769 11.0893C17.5929 11.0339 17.6666 10.9166 17.6666 10.7883V10C17.6666 8.52965 16.4702 7.33332 14.9999 7.33332H11.9999C11.8162 7.33332 11.6666 7.18367 11.6666 7C11.6666 6.81633 11.8162 6.66668 11.9999 6.66668H14.9999C16.8069 6.66668 18.3332 8.19336 18.3332 10V10.3863C18.3332 10.483 18.3752 10.575 18.4486 10.6383C18.5216 10.7013 18.6189 10.7296 18.7142 10.716C18.9486 10.6823 19.1452 10.6666 19.3332 10.6666C20.4082 10.6666 21.3909 11.0627 22.1492 11.713L21.0975 12.7643C20.9675 12.8946 20.9675 13.1053 21.0975 13.2356C21.1629 13.3006 21.2479 13.3333 21.3332 13.3333C21.4186 13.3333 21.5039 13.3006 21.5689 13.2356L22.6205 12.1843C23.2709 12.9423 23.6666 13.925 23.6666 15C23.6666 16.685 22.7716 18.8857 20.8746 21.07L20.5693 20.7643Z" fill="#925ADD"/>
</svg>
