<svg width="43" height="42" viewBox="0 0 43 42" fill="none" xmlns="http://www.w3.org/2000/svg">
<path d="M30.5323 12.6129C30.5323 12.6129 26.0646 15.7097 19.5646 15.8387V26.5484C19.5646 30.0645 21.1452 33.3871 23.871 35.5968L30.5323 41L37.1936 35.5968C39.9194 33.3871 41.5001 30.0645 41.5001 26.5484V15.8387C35.0001 15.7097 30.5323 12.6129 30.5323 12.6129Z" stroke="#925ADD" stroke-width="1.5" stroke-miterlimit="10" stroke-linecap="round" stroke-linejoin="round"/>
<path d="M32.4678 23.5808V19.7098H28.5968V23.5808H24.7258V27.4518H28.5968V31.3227H32.4678V27.4518H36.3387V23.5808H32.4678Z" stroke="#925ADD" stroke-width="1.5" stroke-miterlimit="10" stroke-linecap="round" stroke-linejoin="round"/>
<path d="M13.1129 19.7098H19.5645" stroke="#925ADD" stroke-width="1.5" stroke-miterlimit="10" stroke-linecap="round" stroke-linejoin="round"/>
<path d="M13.1129 24.8711H19.5645" stroke="#925ADD" stroke-width="1.5" stroke-miterlimit="10" stroke-linecap="round" stroke-linejoin="round"/>
<path d="M20.0968 30.0323H13.1129" stroke="#925ADD" stroke-width="1.5" stroke-miterlimit="10" stroke-linecap="round" stroke-linejoin="round"/>
<path d="M8.59682 20.3549C8.95313 20.3549 9.24198 20.066 9.24198 19.7097C9.24198 19.3534 8.95313 19.0646 8.59682 19.0646C8.24051 19.0646 7.95166 19.3534 7.95166 19.7097C7.95166 20.066 8.24051 20.3549 8.59682 20.3549Z" stroke="#925ADD" stroke-width="1.5" stroke-miterlimit="10"/>
<path d="M8.59682 25.5163C8.95313 25.5163 9.24198 25.2274 9.24198 24.8711C9.24198 24.5148 8.95313 24.226 8.59682 24.226C8.24051 24.226 7.95166 24.5148 7.95166 24.8711C7.95166 25.2274 8.24051 25.5163 8.59682 25.5163Z" stroke="#925ADD" stroke-width="1.5" stroke-miterlimit="10"/>
<path d="M8.59682 30.6775C8.95313 30.6775 9.24198 30.3887 9.24198 30.0324C9.24198 29.6761 8.95313 29.3872 8.59682 29.3872C8.24051 29.3872 7.95166 29.6761 7.95166 30.0324C7.95166 30.3887 8.24051 30.6775 8.59682 30.6775Z" stroke="#925ADD" stroke-width="1.5" stroke-miterlimit="10"/>
<path d="M24.7259 8.74194V6.16129C24.7259 5.09677 23.8549 4.22581 22.7904 4.22581H21.5V1H11.1775V4.22581H9.88714C8.82263 4.22581 7.95166 5.09677 7.95166 6.16129V8.74194H24.7259Z" stroke="#925ADD" stroke-width="1.5" stroke-miterlimit="10" stroke-linecap="round" stroke-linejoin="round"/>
<path d="M14.4032 4.87097V5.51613H18.2742V4.87097" stroke="#925ADD" stroke-width="1.5" stroke-miterlimit="10" stroke-linecap="round" stroke-linejoin="round"/>
<path d="M24.7258 41H2.79032C2.08065 41 1.5 40.4193 1.5 39.7096V7.45158C1.5 6.7419 2.08065 6.16125 2.79032 6.16125H4.08065" stroke="#925ADD" stroke-width="1.5" stroke-miterlimit="10" stroke-linecap="round" stroke-linejoin="round"/>
<path d="M24.7258 6.16125H29.242C29.9516 6.16125 30.5323 6.7419 30.5323 7.45158V8.09674" stroke="#925ADD" stroke-width="1.5" stroke-miterlimit="10" stroke-linecap="round" stroke-linejoin="round"/>
</svg>
