<svg width="18" height="18" viewBox="0 0 18 18" fill="none" xmlns="http://www.w3.org/2000/svg">
<path fill-rule="evenodd" clip-rule="evenodd" d="M3 3.74902C2.58921 3.74902 2.25 4.08824 2.25 4.49902V13.499C2.25 13.9098 2.58921 14.249 3 14.249H15C15.4108 14.249 15.75 13.9098 15.75 13.499V4.49902C15.75 4.08824 15.4108 3.74902 15 3.74902H3ZM0.75 4.49902C0.75 3.25981 1.76079 2.24902 3 2.24902H15C16.2392 2.24902 17.25 3.25981 17.25 4.49902V13.499C17.25 14.7382 16.2392 15.749 15 15.749H3C1.76079 15.749 0.75 14.7382 0.75 13.499V4.49902Z" fill="#925ADD"/>
<path fill-rule="evenodd" clip-rule="evenodd" d="M0.885518 4.06899C1.12305 3.72965 1.5907 3.64713 1.93004 3.88466L8.99994 8.8336L16.0698 3.88466C16.4092 3.64713 16.8768 3.72965 17.1144 4.06899C17.3519 4.40833 17.2694 4.87598 16.93 5.11351L9.43004 10.3635C9.1718 10.5443 8.82809 10.5443 8.56985 10.3635L1.06985 5.11351C0.730509 4.87598 0.647983 4.40833 0.885518 4.06899Z" fill="#925ADD"/>
</svg>
