<svg width="43" height="42" viewBox="0 0 43 42" fill="none" xmlns="http://www.w3.org/2000/svg">
<path d="M21.5 10.9999C22.2243 10.9999 22.8114 10.403 22.8114 9.66659C22.8114 8.93021 22.2243 8.33325 21.5 8.33325C20.7756 8.33325 20.1885 8.93021 20.1885 9.66659C20.1885 10.403 20.7756 10.9999 21.5 10.9999Z" fill="#925ADD"/>
<path d="M21.5 29.6667V33.6667" stroke="#925ADD" stroke-width="2" stroke-miterlimit="10" stroke-linecap="round" stroke-linejoin="round"/>
<path d="M24.2541 21.6667C24.582 22.2001 24.7787 22.8001 24.7787 23.4001C24.7787 24.7334 23.9263 25.9334 22.6804 26.4001L20.5164 27.0667C19.5328 27.4001 18.8115 28.3334 18.8115 29.4001C18.8115 30.3334 19.3361 31.2001 20.1886 31.6001L21.4345 32.2668" stroke="#925ADD" stroke-width="2" stroke-miterlimit="10" stroke-linecap="round" stroke-linejoin="round"/>
<path d="M21.5 15.6665V26.3332" stroke="#925ADD" stroke-width="2" stroke-miterlimit="10" stroke-linecap="round" stroke-linejoin="round"/>
<path d="M23.4673 13H20.9099C19.0739 13 17.5657 14.5333 17.5657 16.4C17.5657 17.4 18.0247 18.3333 18.746 19" stroke="#925ADD" stroke-width="2" stroke-miterlimit="10" stroke-linecap="round" stroke-linejoin="round"/>
<path d="M41.5 16.2L35.5984 5.8L27.4016 10.6V1H15.5984V10.6L7.40164 5.8L1.5 16.2L9.69672 21L1.5 25.8L7.40164 36.2L15.5984 31.4V41H27.4016V31.4L35.5984 36.2L41.5 25.8L33.3033 21L41.5 16.2Z" stroke="#925ADD" stroke-width="2" stroke-miterlimit="10" stroke-linecap="round" stroke-linejoin="round"/>
</svg>
