<svg width="24" height="24" viewBox="0 0 24 24" fill="none" xmlns="http://www.w3.org/2000/svg">
<path d="M0.816815 3.27919C1.10136 1.37276 2.75403 -0.000976562 4.68158 -0.000976562H19.2185C21.1294 -0.000976562 22.7727 1.34919 23.0764 3.23581C23.4849 5.77261 23.9683 9.31084 23.9984 11.999C24.0281 14.6533 23.634 18.1435 23.2858 20.6751C23.021 22.6012 21.359 23.999 19.4147 23.999H4.68158C2.75403 23.999 1.10136 22.6253 0.816816 20.7189C0.438548 18.1845 0 14.6703 0 11.999C0 9.32775 0.438548 5.81353 0.816815 3.27919Z" fill="url(#paint0_linear_301_535)"/>
<path d="M13.3397 14.9659C14.0283 14.8091 14.6914 14.5364 15.3016 14.1528C15.7635 13.8614 15.9033 13.2512 15.6118 12.7875C15.3204 12.3239 14.7102 12.1842 14.2465 12.4756C12.8625 13.3466 11.0813 13.3449 9.69724 12.4756C9.23364 12.1842 8.62341 12.3239 8.33194 12.7875C8.04048 13.2495 8.18024 13.8614 8.64216 14.1528C9.25237 14.5364 9.91541 14.8091 10.604 14.9659L8.71716 16.8545C8.33026 17.2414 8.33026 17.8669 8.71716 18.2538C8.91147 18.4465 9.16373 18.5436 9.416 18.5436C9.66997 18.5436 9.92223 18.4465 10.1166 18.2538L11.9727 16.3977L13.8289 18.2538C14.2158 18.6408 14.8414 18.6408 15.2283 18.2538C15.6152 17.8669 15.6152 17.2397 15.2283 16.8545L13.3397 14.9659ZM11.9727 7.43374C12.7449 7.43374 13.3721 8.06099 13.3721 8.83313C13.3721 9.60356 12.7449 10.2308 11.9727 10.2308C11.2023 10.2308 10.5733 9.60356 10.5733 8.83313C10.5733 8.06099 11.2023 7.43374 11.9727 7.43374ZM11.9727 12.2097C13.8358 12.2097 15.351 10.6944 15.351 8.83311C15.351 6.96842 13.8358 5.45312 11.9727 5.45312C10.1097 5.45312 8.59445 6.96842 8.59445 8.83142C8.59445 10.6944 10.1097 12.2097 11.9727 12.2097Z" fill="white"/>
<defs>
<linearGradient id="paint0_linear_301_535" x1="4.50811" y1="-0.000976469" x2="9.60877" y2="25.8946" gradientUnits="userSpaceOnUse">
<stop stop-color="#79CBEB"/>
<stop offset="1" stop-color="#2C64F5"/>
</linearGradient>
</defs>
</svg>
