<svg width="22" height="22" viewBox="0 0 22 22" fill="none" xmlns="http://www.w3.org/2000/svg">
<path d="M13.296 4.58317C14.1913 4.75786 15.0142 5.19574 15.6592 5.84078C16.3042 6.48582 16.7421 7.30866 16.9168 8.204M13.296 0.916504C15.1561 1.12315 16.8908 1.95616 18.215 3.27876C19.5393 4.60136 20.3745 6.33493 20.5835 8.19484M19.6668 15.5098V18.2598C19.6678 18.5151 19.6156 18.7678 19.5133 19.0017C19.411 19.2357 19.261 19.4456 19.0729 19.6182C18.8848 19.7908 18.6627 19.9222 18.4208 20.004C18.179 20.0858 17.9227 20.1161 17.6685 20.0932C14.8477 19.7867 12.1382 18.8228 9.75764 17.279C7.54282 15.8716 5.66503 13.9938 4.25764 11.779C2.70846 9.38761 1.74436 6.66492 1.44348 3.8315C1.42057 3.57802 1.45069 3.32253 1.53193 3.08133C1.61317 2.84012 1.74375 2.61847 1.91534 2.43049C2.08694 2.24251 2.2958 2.09232 2.52862 1.98948C2.76144 1.88664 3.01312 1.83341 3.26764 1.83317H6.01764C6.46251 1.82879 6.89378 1.98633 7.23109 2.27641C7.5684 2.56649 7.78871 2.96933 7.85097 3.40984C7.96705 4.2899 8.1823 5.154 8.49264 5.98567C8.61597 6.31377 8.64267 6.67034 8.56956 7.01314C8.49645 7.35595 8.3266 7.67061 8.08014 7.91984L6.91598 9.084C8.2209 11.3789 10.1211 13.2791 12.416 14.584L13.5801 13.4198C13.8294 13.1734 14.144 13.0035 14.4868 12.9304C14.8296 12.8573 15.1862 12.884 15.5143 13.0073C16.346 13.3177 17.2101 13.5329 18.0901 13.649C18.5354 13.7118 18.9421 13.9361 19.2328 14.2792C19.5235 14.6223 19.678 15.0603 19.6668 15.5098Z" stroke="#293543" stroke-width="2" stroke-linecap="round" stroke-linejoin="round"/>
</svg>
