<svg width="200" height="200" viewBox="0 0 200 200" fill="none" xmlns="http://www.w3.org/2000/svg">
<path d="M110.206 182.427L200 174.991L154.543 142.4L62.5066 152.121L110.206 182.427Z" fill="#E0E5F4"/>
<path d="M66.9433 34.1035L51.7988 43.9706L51.3695 43.7519L49.1753 44.6511L50.0577 45.0886L56.8787 43.9706L79.2497 30.7739L66.9433 34.1035Z" fill="#C7D1F4"/>
<path d="M56.3306 43.6308L49.2949 44.6516L66.5144 33.6422L78.8209 30.3369L56.3306 43.6308Z" fill="#E0E5F4"/>
<path d="M78.8201 30.3369L78.51 138.098L131.933 169.522L132.243 61.9555V61.7611L78.8201 30.3369Z" fill="#C7D1F4"/>
<path d="M78.9636 30.2881L56.4495 43.5334L56.7356 151.1L79.2736 137.855L78.9636 30.2881Z" fill="#BBC5E6"/>
<path d="M124.54 22.827L87.0007 0.735289C85.9513 0.152009 84.9258 -0.091024 84.0672 0.0304926C83.8526 0.054796 83.6379 0.103403 83.4471 0.176313L82.6839 0.370739V0.613773C81.9684 1.19705 81.5391 2.21779 81.5391 3.65169L81.2529 101.497C81.2529 105.021 83.6856 109.298 86.6907 111.072L123.944 133.456C126.019 134.963 129.692 133.504 129.692 129.98L129.954 32.4025C129.978 28.8785 127.545 24.6012 124.54 22.827Z" fill="#C7D1F4"/>
<path d="M123.658 23.0466L86.1187 0.954832C83.1136 -0.795007 80.6571 0.614585 80.6571 4.13857L80.3948 101.716C80.3948 105.24 82.8274 109.518 85.8325 111.292L123.372 133.384C126.377 135.158 128.833 133.724 128.833 130.2L129.096 32.6221C129.096 29.0981 126.663 24.8207 123.658 23.0466ZM92.4866 12.0858C92.5343 12.1101 92.6058 12.1587 92.6535 12.183C95.3485 13.8599 97.495 17.7241 97.495 20.9079C97.495 24.0916 95.3247 25.404 92.6296 23.9215C92.582 23.8972 92.5104 23.8486 92.4627 23.8243C89.6961 22.1959 87.4543 18.2345 87.4543 15.0022C87.4781 11.7698 89.72 10.4574 92.4866 12.0858ZM92.2242 107.817C89.4577 106.188 87.2158 102.227 87.2158 98.9944C87.2158 95.7378 89.4815 94.4497 92.2481 96.078C95.0146 97.7064 97.2565 101.668 97.2565 104.9C97.2565 108.132 94.9908 109.445 92.2242 107.817ZM92.2958 86.8185C89.5292 85.1901 87.2873 81.2287 87.2873 77.9964C87.2873 74.7397 89.5531 73.4516 92.3196 75.08C95.0862 76.7083 97.3281 80.6697 97.3281 83.9021C97.3042 87.1344 95.0623 88.4468 92.2958 86.8185ZM92.3435 65.8204C89.5769 64.1921 87.335 60.2306 87.335 56.9983C87.335 53.7416 89.6007 52.4536 92.3673 54.0819C95.1339 55.7102 97.3757 59.6717 97.3757 62.904C97.3757 66.1606 95.11 67.4487 92.3435 65.8204ZM92.3912 44.8223C89.6246 43.194 87.3827 39.2326 87.3827 36.0002C87.3827 32.7436 89.6485 31.4555 92.415 33.0838C95.1816 34.7121 97.4235 38.6736 97.4235 41.9059C97.4235 45.1626 95.1816 46.4506 92.3912 44.8223ZM104.912 119.847C104.912 120.065 104.769 120.138 104.578 120.041C104.388 119.944 104.244 119.677 104.244 119.458L104.531 14.4918C104.531 14.2731 104.674 14.2001 104.865 14.2974C105.055 14.3946 105.198 14.6619 105.198 14.8806L104.912 119.847ZM116.98 122.374C114.214 120.746 111.972 116.784 111.972 113.552C111.972 110.295 114.237 109.007 117.004 110.636C119.771 112.264 122.012 116.225 122.012 119.458C122.012 122.714 119.747 124.003 116.98 122.374ZM117.028 101.376C114.261 99.7478 112.019 95.7864 112.019 92.5541C112.019 89.2974 114.285 88.0093 117.052 89.6376C119.818 91.266 122.06 95.2274 122.06 98.4598C122.06 101.716 119.818 103.004 117.028 101.376ZM117.099 80.3781C114.333 78.7498 112.091 74.7883 112.091 71.556C112.091 68.2993 114.357 67.0113 117.123 68.6396C119.89 70.2679 122.132 74.2294 122.132 77.4617C122.132 80.7183 119.866 82.0307 117.099 80.3781ZM117.147 59.38C114.381 57.7517 112.139 53.7903 112.139 50.5579C112.139 47.3013 114.404 46.0132 117.171 47.6415C119.938 49.2698 122.179 53.2313 122.179 56.4636C122.179 59.7203 119.914 61.0326 117.147 59.38ZM117.219 38.4062C114.452 36.7779 112.21 32.8165 112.21 29.5841C112.21 26.3275 114.476 25.0394 117.243 26.6677C120.009 28.2961 122.251 32.2575 122.251 35.4899C122.227 38.7222 119.985 40.0346 117.219 38.4062Z" fill="white"/>
<path d="M94.2991 10.9911C94.2514 10.9668 94.1798 10.9182 94.1321 10.8939C92.7012 10.0433 91.4133 9.99465 90.507 10.5779C90.4116 10.6265 90.3162 10.6994 90.2446 10.7724L88.9568 11.7202L89.0999 13.0083L89.1714 12.9597C89.1237 13.227 89.1237 13.5186 89.0999 13.8103C89.0999 17.0669 91.3179 21.0041 94.1083 22.6324C94.156 22.6567 94.2275 22.7053 94.2752 22.7296C94.5137 22.8511 94.7284 22.9726 94.9669 23.0455L94.8953 23.0941L96.0401 24.2121L97.9004 22.8511C97.9004 22.8511 97.9004 22.8511 97.9242 22.8268C98.7113 22.2435 99.1644 21.1742 99.1883 19.6917C99.1406 16.5322 96.9941 12.668 94.2991 10.9911ZM89.8154 14.5151C89.6723 14.4422 89.5769 14.2477 89.5769 14.0776C89.5769 13.9075 89.6961 13.8589 89.8154 13.9318V14.5151Z" fill="#C7D1F4"/>
<path d="M94.0835 31.8686C92.6525 31.018 91.3407 30.9693 90.4344 31.5769L90.4106 31.5526L88.8604 32.6949L89.0034 33.983L89.0988 33.9101C89.0512 34.1774 89.0273 34.4933 89.0273 34.8093C89.0273 38.0659 91.2453 42.0031 94.0358 43.6314C94.322 43.8015 94.6081 43.923 94.8705 44.0445L94.7751 44.0931L95.9199 45.2111L97.5417 44.0202C98.4718 43.5099 99.0681 42.3433 99.0681 40.715C99.0919 37.4583 96.85 33.5212 94.0835 31.8686Z" fill="#C7D1F4"/>
<path d="M94.0121 52.8661C92.5335 51.9912 91.1979 51.9669 90.2678 52.6231L88.7175 53.7653L88.8606 55.0534L89.0276 54.9319C88.9799 55.1992 88.956 55.4909 88.956 55.8068C88.956 59.0634 91.174 63.0006 93.9644 64.6289C94.2506 64.799 94.5368 64.9449 94.823 65.0421L94.6322 65.1636L95.777 66.2815L97.5896 64.9449C98.4482 64.4102 98.9967 63.2679 98.9967 61.6882C99.0206 58.4559 96.8025 54.4944 94.0121 52.8661Z" fill="#C7D1F4"/>
<path d="M93.9646 73.8642C92.4621 72.9893 91.1265 72.965 90.1964 73.6455L90.1725 73.6211L88.6223 74.7634L88.7654 76.0515L88.9801 75.9057C88.9324 76.1973 88.9085 76.4889 88.9085 76.8049C88.9085 80.0615 91.1265 83.9987 93.9169 85.627C94.2031 85.7971 94.4655 85.9187 94.7517 86.0402L94.5609 86.1617L95.7056 87.2796L97.399 86.0402C98.3768 85.5298 98.9731 84.3875 98.9731 82.6863C98.9731 79.454 96.7312 75.4925 93.9646 73.8642Z" fill="#C7D1F4"/>
<path d="M93.8927 94.862C92.5571 94.06 91.3407 93.9628 90.4344 94.4489L90.4106 94.4245L88.8604 95.5668L88.9796 96.5875C88.9081 96.9521 88.8604 97.3409 88.8604 97.7784C88.8604 101.035 91.0784 104.972 93.8688 106.601C94.2266 106.819 94.5843 106.989 94.9421 107.087L95.9437 108.059L97.494 106.916C97.5894 106.844 97.6848 106.771 97.7802 106.698L97.804 106.673C98.4957 106.066 98.9011 105.045 98.9011 103.66C98.925 100.452 96.6831 96.4903 93.8927 94.862Z" fill="#C7D1F4"/>
<path d="M118.863 37.1908C119.388 37.5067 119.889 37.7011 120.366 37.7983L121.105 38.5274L122.965 37.1421V37.0692C123.538 36.4617 123.872 35.4895 123.872 34.2257C123.872 30.9691 121.654 27.032 118.863 25.4036C117.623 24.6745 116.502 24.5287 115.62 24.8933L115.572 24.8447L115.334 25.0148C115.167 25.112 115 25.2335 114.857 25.355L114.022 25.9626L114.093 26.5702C113.926 27.0563 113.831 27.6395 113.831 28.2957C113.855 31.6253 116.073 35.5624 118.863 37.1908Z" fill="#C7D1F4"/>
<path d="M118.84 46.4495C117.6 45.7204 116.455 45.5746 115.573 45.9392L115.525 45.8906L113.975 47.0328L114.046 47.7133C113.879 48.1994 113.808 48.7584 113.808 49.3902C113.808 52.6469 116.026 56.584 118.816 58.2124C119.341 58.504 119.842 58.7227 120.295 58.8199L121.034 59.549L122.418 58.5283C122.537 58.4554 122.632 58.3825 122.728 58.2853L122.918 58.1637V58.1394C123.515 57.5319 123.849 56.5597 123.849 55.2716C123.849 52.015 121.607 48.0779 118.84 46.4495Z" fill="#C7D1F4"/>
<path d="M118.768 67.4478C117.48 66.6944 116.288 66.5729 115.381 66.9861L115.358 66.9618L115.191 67.0833C115.071 67.1562 114.952 67.2534 114.833 67.3506L113.831 68.104L113.927 68.9303C113.807 69.3678 113.736 69.8296 113.736 70.3885C113.736 73.6452 115.954 77.5823 118.744 79.2106C119.174 79.478 119.603 79.6481 120.008 79.7696L120.891 80.6445L122.751 79.2593V79.2349C123.395 78.6274 123.777 77.6309 123.777 76.2942C123.777 73.0133 121.535 69.0762 118.768 67.4478Z" fill="#C7D1F4"/>
<path d="M118.721 88.4465C117.409 87.6688 116.217 87.5716 115.335 87.9847L115.287 87.9604L113.737 89.1027L113.832 90.0019C113.737 90.415 113.665 90.8768 113.665 91.3872C113.665 94.6438 115.883 98.581 118.673 100.209C119.103 100.452 119.508 100.647 119.914 100.744L120.796 101.619L122.203 100.574C122.37 100.477 122.513 100.379 122.656 100.234C123.3 99.626 123.706 98.6053 123.706 97.2686C123.73 94.0119 121.488 90.0748 118.721 88.4465Z" fill="#C7D1F4"/>
<path d="M118.65 109.42C117.505 108.739 116.456 108.569 115.597 108.836L115.502 108.739L115.072 109.055C114.953 109.128 114.834 109.225 114.715 109.322L113.975 109.881L114.023 110.295C113.761 110.854 113.617 111.534 113.617 112.336C113.617 115.593 115.835 119.53 118.626 121.158C119.27 121.547 119.89 121.766 120.462 121.839L121.035 122.398L122.895 121.012L122.871 120.891C123.348 120.283 123.634 119.36 123.634 118.217C123.658 115.009 121.416 111.072 118.65 109.42Z" fill="#C7D1F4"/>
<path d="M92.6534 12.1826C92.6057 12.1583 92.5341 12.1097 92.4864 12.0854C89.7198 10.457 87.4541 11.7694 87.4541 15.0018C87.4541 18.2584 89.6721 22.1955 92.4626 23.8239C92.5103 23.8482 92.5818 23.8968 92.6295 23.9211C95.3245 25.4036 97.4949 24.0912 97.4949 20.9075C97.4949 17.7237 95.3484 13.8595 92.6534 12.1826ZM96.6363 20.6887L88.1696 15.7066C88.0265 15.6336 87.9311 15.4392 87.9311 15.2691C87.9311 15.099 88.0503 15.0504 88.1696 15.1233L96.6363 20.1055C96.7794 20.1784 96.8748 20.3728 96.8748 20.5429C96.8986 20.713 96.7794 20.786 96.6363 20.6887Z" fill="#E0E5F4"/>
<path d="M92.4387 33.0824C89.6722 31.4541 87.4065 32.7665 87.4065 35.9988C87.4065 39.2555 89.6245 43.1926 92.4149 44.8209C95.1814 46.4493 97.4471 45.1369 97.4471 41.9045C97.4471 38.6722 95.2053 34.7108 92.4387 33.0824ZM96.5886 41.6858L88.122 36.7036C87.9789 36.6307 87.8835 36.4363 87.8835 36.2662C87.8835 36.096 88.0027 36.0474 88.122 36.1203L96.5886 41.1025C96.7317 41.1754 96.8271 41.3699 96.8271 41.54C96.8271 41.7101 96.7078 41.783 96.5886 41.6858Z" fill="#E0E5F4"/>
<path d="M92.3668 54.0815C89.6002 52.4531 87.3345 53.7655 87.3345 56.9979C87.3345 60.2545 89.5525 64.1916 92.3429 65.82C95.1095 67.4483 97.3752 66.1359 97.3752 62.9036C97.3991 59.6469 95.1572 55.7098 92.3668 54.0815ZM96.5166 62.6848L88.05 57.7026C87.9069 57.6297 87.8115 57.4353 87.8115 57.2652C87.8115 57.0951 87.9307 57.0465 88.05 57.1194L96.5166 62.1015C96.6597 62.1745 96.7551 62.3689 96.7551 62.539C96.779 62.7091 96.6597 62.782 96.5166 62.6848Z" fill="#E0E5F4"/>
<path d="M92.3192 75.0795C89.5526 73.4512 87.2869 74.7636 87.2869 77.9959C87.2869 81.2525 89.5049 85.1897 92.2953 86.818C95.0619 88.4463 97.3276 87.134 97.3276 83.9016C97.3276 80.645 95.0858 76.7078 92.3192 75.0795ZM96.4691 83.6829L88.0024 78.7007C87.8593 78.6278 87.7639 78.4334 87.7639 78.2632C87.7639 78.0931 87.8831 78.0445 88.0024 78.1174L96.4691 83.0996C96.6122 83.1725 96.7076 83.3669 96.7076 83.5371C96.7076 83.7072 96.6122 83.7801 96.4691 83.6829Z" fill="#E0E5F4"/>
<path d="M92.2471 96.0771C89.4805 94.4487 87.2148 95.7611 87.2148 98.9935C87.2148 102.25 89.4329 106.187 92.2233 107.816C94.9898 109.444 97.2555 108.132 97.2555 104.899C97.2794 101.643 95.0375 97.7054 92.2471 96.0771ZM96.3969 104.68L87.9303 99.6983C87.7872 99.6253 87.6918 99.4309 87.6918 99.2608C87.6918 99.0907 87.8111 99.0421 87.9303 99.115L96.3969 104.097C96.54 104.17 96.6354 104.364 96.6354 104.535C96.6593 104.705 96.54 104.753 96.3969 104.68Z" fill="#E0E5F4"/>
<path d="M117.242 26.642C114.476 25.0137 112.21 26.3261 112.21 29.5584C112.21 32.815 114.428 36.7522 117.218 38.3805C119.985 40.0088 122.251 38.6964 122.251 35.4641C122.251 32.2318 120.009 28.2703 117.242 26.642ZM121.535 35.3426L113.069 30.3604C112.925 30.2875 112.83 30.0931 112.83 29.9229C112.83 29.7528 112.949 29.7042 113.092 29.7771L121.559 34.7593C121.702 34.8322 121.798 35.0266 121.798 35.1968C121.774 35.3669 121.654 35.4155 121.535 35.3426Z" fill="#E0E5F4"/>
<path d="M117.195 47.641C114.428 46.0127 112.162 47.3251 112.162 50.5574C112.162 53.8141 114.38 57.7512 117.171 59.3795C119.937 61.0079 122.203 59.6955 122.203 56.4631C122.203 53.2308 119.961 49.2693 117.195 47.641ZM121.464 56.3416L112.997 51.3594C112.854 51.2865 112.759 51.0921 112.759 50.922C112.759 50.7518 112.878 50.7032 113.021 50.7762L121.488 55.7583C121.631 55.8312 121.726 56.0257 121.726 56.1958C121.726 56.3416 121.607 56.4145 121.464 56.3416Z" fill="#E0E5F4"/>
<path d="M117.123 68.6391C114.356 67.0107 112.09 68.3231 112.09 71.5555C112.09 74.8121 114.308 78.7493 117.099 80.3776C119.865 82.0059 122.131 80.6935 122.131 77.4612C122.131 74.2288 119.889 70.2674 117.123 68.6391ZM121.416 77.3397L112.949 72.3575C112.806 72.2846 112.71 72.0901 112.71 71.92C112.71 71.7499 112.83 71.7013 112.973 71.7742L121.439 76.7564C121.582 76.8293 121.678 77.0237 121.678 77.1939C121.654 77.3397 121.559 77.4126 121.416 77.3397Z" fill="#E0E5F4"/>
<path d="M117.075 89.6366C114.308 88.0083 112.043 89.3207 112.043 92.553C112.043 95.8097 114.261 99.7468 117.051 101.375C119.818 103.003 122.083 101.691 122.083 98.4587C122.083 95.2021 119.842 91.265 117.075 89.6366ZM121.344 98.3372L112.877 93.355C112.734 93.2821 112.639 93.0877 112.639 92.9176C112.639 92.7475 112.758 92.6989 112.901 92.7718L121.368 97.7539C121.511 97.8269 121.607 98.0213 121.607 98.1914C121.607 98.3372 121.487 98.4101 121.344 98.3372Z" fill="#E0E5F4"/>
<path d="M117.003 110.635C114.236 109.007 111.971 110.319 111.971 113.552C111.971 116.808 114.189 120.745 116.979 122.374C119.746 124.002 122.011 122.69 122.011 119.457C122.011 116.201 119.793 112.263 117.003 110.635ZM121.296 119.336L112.829 114.354C112.686 114.281 112.591 114.086 112.591 113.916C112.591 113.746 112.71 113.697 112.853 113.77L121.32 118.752C121.463 118.825 121.558 119.02 121.558 119.19C121.534 119.336 121.439 119.409 121.296 119.336Z" fill="#E0E5F4"/>
<path d="M104.888 14.2966C104.697 14.1994 104.554 14.2723 104.554 14.4911L104.268 119.457C104.268 119.676 104.411 119.943 104.602 120.04C104.793 120.138 104.936 120.065 104.936 119.846L105.222 14.8799C105.222 14.6612 105.055 14.3939 104.888 14.2966Z" fill="#E0E5F4"/>
<path d="M96.6365 20.1058L88.1699 15.1236C88.0268 15.0507 87.9314 15.0993 87.9314 15.2694C87.9314 15.4396 88.0506 15.634 88.1699 15.7069L96.6365 20.6891C96.7796 20.762 96.8989 20.7134 96.8989 20.5433C96.8989 20.3975 96.7796 20.203 96.6365 20.1058Z" fill="white"/>
<path d="M96.5889 41.1029L88.1223 36.1207C87.9792 36.0478 87.8838 36.0964 87.8838 36.2665C87.8838 36.4366 88.003 36.6311 88.1223 36.704L96.5889 41.6862C96.732 41.7591 96.8512 41.7105 96.8512 41.5403C96.8274 41.3945 96.7082 41.2001 96.5889 41.1029Z" fill="white"/>
<path d="M96.5169 62.1014L88.0503 57.1192C87.9072 57.0463 87.8118 57.0949 87.8118 57.2651C87.8118 57.4352 87.931 57.6296 88.0503 57.7025L96.5169 62.6847C96.66 62.7576 96.7793 62.709 96.7793 62.5389C96.7793 62.3931 96.66 62.1986 96.5169 62.1014Z" fill="white"/>
<path d="M96.4693 83.1L88.0027 78.1178C87.8596 78.0449 87.7642 78.0935 87.7642 78.2636C87.7642 78.4337 87.8834 78.6281 88.0027 78.701L96.4693 83.6832C96.6124 83.7562 96.7316 83.7076 96.7316 83.5374C96.7078 83.3916 96.6124 83.1729 96.4693 83.1Z" fill="white"/>
<path d="M96.3972 104.097L87.9306 99.1148C87.7875 99.0419 87.6921 99.0905 87.6921 99.2607C87.6921 99.4308 87.8114 99.6252 87.9306 99.6981L96.3972 104.68C96.5403 104.753 96.6596 104.705 96.6596 104.535C96.6596 104.389 96.5403 104.17 96.3972 104.097Z" fill="white"/>
<path d="M121.535 34.7601L113.068 29.7779C112.925 29.705 112.806 29.7536 112.806 29.9237C112.806 30.0939 112.925 30.2883 113.044 30.3612L121.511 35.3434C121.654 35.4163 121.749 35.3677 121.749 35.1976C121.773 35.0274 121.654 34.833 121.535 34.7601Z" fill="white"/>
<path d="M121.464 55.7586L112.997 50.7765C112.854 50.7036 112.735 50.7522 112.735 50.9223C112.735 51.0924 112.854 51.2868 112.973 51.3597L121.44 56.3419C121.583 56.4148 121.679 56.3662 121.679 56.1961C121.726 56.026 121.607 55.8316 121.464 55.7586Z" fill="white"/>
<path d="M121.416 76.7562L112.95 71.774C112.806 71.7011 112.687 71.7497 112.687 71.9198C112.687 72.09 112.807 72.2844 112.926 72.3573L121.392 77.3395C121.535 77.4124 121.631 77.3638 121.631 77.1937C121.655 77.0235 121.559 76.8291 121.416 76.7562Z" fill="white"/>
<path d="M121.344 97.7542L112.878 92.7721C112.734 92.6992 112.615 92.7478 112.615 92.9179C112.615 93.088 112.734 93.2824 112.854 93.3553L121.32 98.3375C121.464 98.4104 121.559 98.3618 121.559 98.1917C121.607 98.0216 121.487 97.8272 121.344 97.7542Z" fill="white"/>
<path d="M121.297 118.753L112.83 113.771C112.687 113.698 112.568 113.747 112.568 113.917C112.568 114.087 112.687 114.281 112.806 114.354L121.273 119.337C121.416 119.409 121.511 119.361 121.511 119.191C121.535 119.021 121.44 118.826 121.297 118.753Z" fill="white"/>
<path d="M118.363 62.2714L80.8239 40.1796C79.7746 39.5963 78.749 39.3533 77.8904 39.4748C77.6758 39.4991 77.4612 39.5477 77.2704 39.6206L76.5072 39.8151V40.0581C75.7917 40.6414 75.3624 41.6621 75.3624 43.096L75.0762 140.941C75.0762 144.465 77.5089 148.743 80.5139 150.517L117.767 172.9C119.842 174.407 123.515 172.949 123.515 169.425L123.777 71.8469C123.801 68.3472 121.368 64.0455 118.363 62.2714Z" fill="#C7D1F4"/>
<path d="M117.48 62.5133L79.9407 40.4216C76.9357 38.6474 74.4791 40.0813 74.4791 43.6053L74.2168 141.183C74.2168 144.707 76.6495 148.985 79.6545 150.759L117.194 172.85C120.199 174.625 122.656 173.191 122.656 169.667L122.918 72.0888C122.918 68.5648 120.485 64.2631 117.48 62.5133ZM86.3086 51.5282C86.3563 51.5525 86.4278 51.6011 86.4755 51.6254C89.1706 53.3023 91.317 57.1665 91.317 60.3503C91.317 63.534 89.1467 64.8464 86.4517 63.3639C86.404 63.3396 86.3324 63.291 86.2847 63.2667C83.5182 61.6384 81.2763 57.6769 81.2763 54.4446C81.3001 51.2122 83.542 49.8999 86.3086 51.5282ZM86.0462 147.283C83.2797 145.655 81.0378 141.694 81.0378 138.461C81.0378 135.205 83.3035 133.916 86.0701 135.545C88.8366 137.173 91.0785 141.135 91.0785 144.367C91.0785 147.599 88.8367 148.912 86.0462 147.283ZM86.1178 126.285C83.3512 124.657 81.1094 120.695 81.1094 117.463C81.1094 114.206 83.3751 112.918 86.1416 114.547C88.9082 116.175 91.1501 120.136 91.1501 123.369C91.1262 126.601 88.8844 127.914 86.1178 126.285ZM86.1655 105.287C83.3989 103.659 81.1571 99.6974 81.1571 96.465C81.1571 93.2084 83.4228 91.9203 86.1893 93.5486C88.9559 95.177 91.1978 99.1384 91.1978 102.371C91.1978 105.603 88.9321 106.915 86.1655 105.287ZM86.237 84.2891C83.4705 82.6607 81.2286 78.6993 81.2286 75.467C81.2286 72.2103 83.4943 70.9222 86.2609 72.5506C89.0275 74.1789 91.2693 78.1403 91.2693 81.3727C91.2455 84.605 89.0036 85.9174 86.237 84.2891ZM98.7581 159.313C98.7581 159.532 98.615 159.605 98.4242 159.508C98.2334 159.411 98.0903 159.143 98.0903 158.925L98.3765 53.9585C98.3765 53.7398 98.5196 53.6669 98.7104 53.7641C98.9012 53.8613 99.0443 54.1286 99.0443 54.3474L98.7581 159.313ZM110.802 161.841C108.036 160.213 105.794 156.251 105.794 153.019C105.794 149.762 108.06 148.474 110.826 150.102C113.593 151.731 115.835 155.692 115.835 158.925C115.835 162.157 113.569 163.469 110.802 161.841ZM110.85 140.843C108.083 139.215 105.841 135.253 105.841 132.021C105.841 128.764 108.107 127.476 110.874 129.104C113.64 130.733 115.882 134.694 115.882 137.927C115.882 141.159 113.64 142.471 110.85 140.843ZM110.921 119.845C108.155 118.217 105.913 114.255 105.913 111.023C105.913 107.766 108.179 106.478 110.945 108.106C113.712 109.735 115.954 113.696 115.954 116.928C115.954 120.161 113.688 121.473 110.921 119.845ZM110.969 98.8468C108.203 97.2184 105.961 93.257 105.961 90.0246C105.961 86.768 108.226 85.4799 110.993 87.1082C113.76 88.7366 116.001 92.698 116.001 95.9304C116.001 99.1627 113.76 100.475 110.969 98.8468ZM111.041 77.8487C108.274 76.2204 106.032 72.2589 106.032 69.0266C106.032 65.7699 108.298 64.4818 111.065 66.1102C113.831 67.7385 116.073 71.6999 116.073 74.9323C116.073 78.1646 113.807 79.477 111.041 77.8487Z" fill="white"/>
<path d="M88.1211 50.4349C88.0734 50.4106 88.0019 50.362 87.9542 50.3377C86.5232 49.4871 85.2353 49.4385 84.329 50.0218C84.2336 50.0704 84.1382 50.1433 84.0667 50.2162L82.7788 51.164L82.9219 52.4521L82.9935 52.4035C82.9458 52.6708 82.9458 52.9625 82.9219 53.2541C82.9219 56.5108 85.1399 60.4479 87.9303 62.0762C87.978 62.1005 88.0496 62.1491 88.0973 62.1734C88.3358 62.295 88.5504 62.4165 88.7889 62.4894L88.7174 62.538L89.8621 63.6559L91.7224 62.295C91.7224 62.295 91.7224 62.295 91.7463 62.2707C92.5333 61.6874 92.9865 60.618 93.0103 59.1355C92.9865 56.0004 90.8162 52.1362 88.1211 50.4349ZM83.6374 53.9832C83.4943 53.9103 83.3989 53.7159 83.3989 53.5458C83.3989 53.3756 83.5181 53.327 83.6374 53.3999V53.9832Z" fill="#C7D1F4"/>
<path d="M87.9067 71.3359C86.4757 70.4852 85.164 70.4366 84.2577 71.0442L84.2338 71.0199L82.6836 72.1622L82.8267 73.4503L82.9221 73.3773C82.8744 73.6447 82.8505 73.9606 82.8505 74.2766C82.8505 77.5332 85.0685 81.4704 87.859 83.0987C88.1452 83.2688 88.4313 83.3903 88.6937 83.5118L88.5983 83.5604L89.7431 84.6784L91.3649 83.4875C92.295 82.9772 92.8913 81.8106 92.8913 80.1823C92.9151 76.9256 90.6732 72.9642 87.9067 71.3359Z" fill="#C7D1F4"/>
<path d="M87.8586 92.3339C86.3799 91.4589 85.0443 91.4346 84.1142 92.0908L82.564 93.2331L82.7071 94.5212L82.874 94.3996C82.8263 94.667 82.8025 94.9586 82.8025 95.2746C82.8025 98.5312 85.0205 102.468 87.8109 104.097C88.0971 104.267 88.3833 104.413 88.6695 104.51L88.4787 104.631L89.6235 105.749L91.436 104.413C92.2946 103.878 92.8432 102.736 92.8432 101.156C92.867 97.9236 90.6252 93.9622 87.8586 92.3339Z" fill="#C7D1F4"/>
<path d="M87.7879 113.332C86.2854 112.458 84.9498 112.433 84.0196 113.114L83.9958 113.089L82.4456 114.232L82.5886 115.52L82.8033 115.374C82.7556 115.666 82.7317 115.957 82.7317 116.273C82.7317 119.53 84.9498 123.467 87.7402 125.095C88.0264 125.265 88.2887 125.387 88.5749 125.508L88.3841 125.63L89.5289 126.748L91.2222 125.508C92.2001 124.998 92.7963 123.856 92.7963 122.155C92.7963 118.922 90.5544 114.961 87.7879 113.332Z" fill="#C7D1F4"/>
<path d="M87.7403 134.33C86.4047 133.528 85.1884 133.431 84.2821 133.917L84.2582 133.892L82.708 135.035L82.8273 136.055C82.7557 136.42 82.708 136.809 82.708 137.246C82.708 140.503 84.926 144.44 87.7164 146.068C88.0742 146.287 88.4319 146.457 88.7896 146.554L89.7913 147.526L91.3416 146.384C91.437 146.311 91.5323 146.238 91.6277 146.166L91.6516 146.141C92.3432 145.534 92.7487 144.513 92.7487 143.128C92.7487 139.92 90.5068 135.958 87.7403 134.33Z" fill="#C7D1F4"/>
<path d="M112.687 76.659C113.211 76.975 113.712 77.1694 114.189 77.2666L114.929 77.9957L116.789 76.6104V76.5375C117.361 75.9299 117.695 74.9578 117.695 73.694C117.695 70.4374 115.477 66.5002 112.687 64.8719C111.446 64.1428 110.325 63.997 109.443 64.3615L109.395 64.3129L109.157 64.483C108.99 64.5803 108.823 64.7018 108.68 64.8233L107.845 65.4309L107.917 66.0385C107.75 66.5245 107.654 67.1078 107.654 67.764C107.678 71.0692 109.92 75.0307 112.687 76.659Z" fill="#C7D1F4"/>
<path d="M112.663 85.8939C111.423 85.1648 110.278 85.019 109.396 85.3835L109.348 85.3349L107.798 86.4771L107.87 87.1576C107.703 87.6437 107.631 88.2027 107.631 88.8346C107.631 92.0912 109.849 96.0283 112.64 97.6567C113.164 97.9483 113.665 98.167 114.118 98.2642L114.858 98.9933L116.241 97.9726C116.36 97.8997 116.456 97.8268 116.551 97.7296L116.742 97.6081V97.5838C117.338 96.9762 117.672 96.004 117.672 94.716C117.672 91.4836 115.43 87.5222 112.663 85.8939Z" fill="#C7D1F4"/>
<path d="M112.591 106.892C111.303 106.138 110.111 106.017 109.205 106.43L109.181 106.406L109.014 106.527C108.895 106.6 108.775 106.697 108.656 106.794L107.654 107.548L107.75 108.374C107.631 108.812 107.559 109.273 107.559 109.832C107.559 113.089 109.777 117.026 112.568 118.654C112.997 118.922 113.426 119.092 113.832 119.213L114.714 120.088L116.574 118.703V118.679C117.218 118.071 117.6 117.075 117.6 115.738C117.6 112.481 115.382 108.52 112.591 106.892Z" fill="#C7D1F4"/>
<path d="M112.543 127.889C111.231 127.112 110.039 127.014 109.157 127.428L109.109 127.403L107.559 128.546L107.654 129.445C107.559 129.858 107.487 130.32 107.487 130.83C107.487 134.087 109.705 138.024 112.495 139.652C112.925 139.895 113.33 140.09 113.736 140.187L114.618 141.062L116.025 140.017C116.192 139.92 116.335 139.822 116.478 139.676C117.122 139.069 117.528 138.048 117.528 136.711C117.552 133.479 115.31 129.518 112.543 127.889Z" fill="#C7D1F4"/>
<path d="M112.472 148.888C111.327 148.208 110.278 148.038 109.419 148.305L109.324 148.208L108.894 148.524C108.775 148.597 108.656 148.694 108.537 148.791L107.797 149.35L107.845 149.763C107.583 150.322 107.439 151.003 107.439 151.805C107.439 155.061 109.657 158.999 112.448 160.627C113.092 161.016 113.712 161.234 114.284 161.307L114.857 161.866L116.717 160.481L116.693 160.36C117.17 159.752 117.456 158.828 117.456 157.686C117.504 154.478 115.262 150.517 112.472 148.888Z" fill="#C7D1F4"/>
<path d="M86.4766 51.6508C86.4289 51.6265 86.3573 51.5779 86.3096 51.5536C83.5431 49.9253 81.2773 51.2377 81.2773 54.47C81.2773 57.7267 83.4954 61.6638 86.2858 63.2921C86.3335 63.3164 86.4051 63.365 86.4528 63.3893C89.1478 64.8718 91.3181 63.5595 91.3181 60.3757C91.3419 57.192 89.1716 53.3278 86.4766 51.6508ZM90.4595 60.157L81.9928 55.1748C81.8497 55.1019 81.7543 54.9075 81.7543 54.7374C81.7543 54.5672 81.8736 54.5186 81.9928 54.5915L90.4595 59.5737C90.6026 59.6466 90.698 59.8411 90.698 60.0112C90.7219 60.1813 90.6026 60.2299 90.4595 60.157Z" fill="#E0E5F4"/>
<path d="M86.2608 72.5268C83.4942 70.8984 81.2285 72.2108 81.2285 75.4432C81.2285 78.6998 83.4465 82.6369 86.2369 84.2653C89.0035 85.8936 91.2692 84.5812 91.2692 81.3489C91.2692 78.1165 89.0273 74.1551 86.2608 72.5268ZM90.4106 81.1544L81.944 76.1723C81.8009 76.0993 81.7055 75.9049 81.7055 75.7348C81.7055 75.5647 81.8248 75.5161 81.944 75.589L90.4106 80.5712C90.5537 80.6441 90.6491 80.8385 90.6491 81.0086C90.6491 81.1787 90.5537 81.2273 90.4106 81.1544Z" fill="#E0E5F4"/>
<path d="M86.2132 93.5248C83.4466 91.8965 81.1809 93.2089 81.1809 96.4412C81.1809 99.6979 83.3989 103.635 86.1893 105.263C88.9559 106.892 91.2216 105.579 91.2216 102.347C91.2216 99.1146 88.9798 95.1531 86.2132 93.5248ZM90.3392 102.153L81.8726 97.1703C81.7295 97.0974 81.6341 96.903 81.6341 96.7329C81.6341 96.5627 81.7533 96.5141 81.8726 96.587L90.3392 101.569C90.4823 101.642 90.5777 101.837 90.5777 102.007C90.6015 102.177 90.4823 102.225 90.3392 102.153Z" fill="#E0E5F4"/>
<path d="M86.1424 114.522C83.3758 112.894 81.1101 114.206 81.1101 117.439C81.1101 120.695 83.3281 124.633 86.1185 126.261C88.8851 127.889 91.1508 126.577 91.1508 123.344C91.1508 120.112 88.9089 116.151 86.1424 114.522ZM90.2922 123.15L81.8256 118.168C81.6825 118.095 81.5871 117.901 81.5871 117.73C81.5871 117.56 81.7063 117.512 81.8256 117.585L90.2922 122.567C90.4353 122.64 90.5307 122.834 90.5307 123.004C90.5307 123.174 90.4353 123.223 90.2922 123.15Z" fill="#E0E5F4"/>
<path d="M86.0948 135.521C83.3283 133.893 81.0625 135.205 81.0625 138.437C81.0625 141.694 83.2805 145.631 86.071 147.259C88.8375 148.888 91.1033 147.575 91.1033 144.343C91.1033 141.111 88.8614 137.149 86.0948 135.521ZM90.2208 144.149L81.7541 139.166C81.6111 139.093 81.5157 138.899 81.5157 138.729C81.5157 138.559 81.6349 138.51 81.7541 138.583L90.2208 143.565C90.3639 143.638 90.4593 143.833 90.4593 144.003C90.4832 144.149 90.3639 144.221 90.2208 144.149Z" fill="#E0E5F4"/>
<path d="M111.065 66.1108C108.299 64.4824 106.033 65.7948 106.033 69.0272C106.033 72.2838 108.251 76.2209 111.042 77.8493C113.808 79.4776 116.074 78.1652 116.074 74.9329C116.074 71.6762 113.832 67.7391 111.065 66.1108ZM115.358 74.787L106.892 69.8049C106.749 69.732 106.653 69.5375 106.653 69.3674C106.653 69.1973 106.773 69.1487 106.916 69.2216L115.382 74.2038C115.525 74.2767 115.621 74.4711 115.621 74.6412C115.597 74.8114 115.502 74.8843 115.358 74.787Z" fill="#E0E5F4"/>
<path d="M111.017 87.0844C108.25 85.4561 105.984 86.7684 105.984 90.0008C105.984 93.2574 108.202 97.1946 110.993 98.8229C113.759 100.451 116.025 99.1389 116.025 95.9065C116.025 92.6742 113.783 88.737 111.017 87.0844ZM115.286 95.785L106.819 90.8028C106.676 90.7299 106.581 90.5355 106.581 90.3653C106.581 90.1952 106.7 90.1466 106.843 90.2195L115.31 95.2017C115.453 95.2746 115.548 95.469 115.548 95.6392C115.548 95.8093 115.429 95.8822 115.286 95.785Z" fill="#E0E5F4"/>
<path d="M110.946 108.082C108.179 106.454 105.914 107.766 105.914 110.998C105.914 114.255 108.132 118.192 110.922 119.82C113.689 121.449 115.954 120.136 115.954 116.904C115.954 113.672 113.736 109.735 110.946 108.082ZM115.239 116.783L106.772 111.8C106.629 111.727 106.534 111.533 106.534 111.363C106.534 111.193 106.653 111.144 106.796 111.217L115.263 116.199C115.406 116.272 115.501 116.467 115.501 116.637C115.477 116.807 115.382 116.88 115.239 116.783Z" fill="#E0E5F4"/>
<path d="M110.898 129.08C108.132 127.452 105.866 128.765 105.866 131.997C105.866 135.254 108.084 139.191 110.874 140.819C113.641 142.447 115.907 141.135 115.907 137.903C115.907 134.67 113.665 130.733 110.898 129.08ZM115.167 137.781L106.701 132.799C106.558 132.726 106.462 132.532 106.462 132.361C106.462 132.191 106.581 132.143 106.725 132.216L115.191 137.198C115.334 137.271 115.43 137.465 115.43 137.635C115.43 137.805 115.311 137.878 115.167 137.781Z" fill="#E0E5F4"/>
<path d="M110.826 150.079C108.06 148.451 105.794 149.763 105.794 152.995C105.794 156.252 108.012 160.189 110.802 161.818C113.569 163.446 115.835 162.133 115.835 158.901C115.859 155.669 113.617 151.707 110.826 150.079ZM115.119 158.78L106.653 153.797C106.509 153.725 106.414 153.53 106.414 153.36C106.414 153.19 106.533 153.141 106.676 153.214L115.143 158.196C115.286 158.269 115.382 158.464 115.382 158.634C115.358 158.804 115.262 158.877 115.119 158.78Z" fill="#E0E5F4"/>
<path d="M98.7113 53.7649C98.5206 53.6677 98.3775 53.7406 98.3775 53.9593L98.0913 158.925C98.0913 159.144 98.2344 159.411 98.4252 159.509C98.616 159.606 98.7591 159.533 98.7591 159.314L99.0452 54.3482C99.0452 54.1295 98.9021 53.8621 98.7113 53.7649Z" fill="#E0E5F4"/>
<path d="M90.4586 59.5726L81.9919 54.5904C81.8488 54.5175 81.7534 54.5661 81.7534 54.7362C81.7534 54.9064 81.8727 55.1008 81.9919 55.1737L90.4586 60.1559C90.6017 60.2288 90.7209 60.1802 90.7209 60.0101C90.7209 59.8399 90.6017 59.6455 90.4586 59.5726Z" fill="white"/>
<path d="M90.4109 80.5711L81.9443 75.589C81.8012 75.5161 81.7058 75.5647 81.7058 75.7348C81.7058 75.9049 81.8251 76.0993 81.9443 76.1722L90.4109 81.1544C90.554 81.2273 90.6733 81.1787 90.6733 81.0086C90.6494 80.8385 90.554 80.644 90.4109 80.5711Z" fill="white"/>
<path d="M90.3389 101.57L81.8723 96.5875C81.7292 96.5146 81.6338 96.5632 81.6338 96.7333C81.6338 96.9034 81.753 97.0979 81.8723 97.1708L90.3389 102.153C90.482 102.226 90.6013 102.177 90.6013 102.007C90.6013 101.837 90.482 101.643 90.3389 101.57Z" fill="white"/>
<path d="M90.2926 122.567L81.8259 117.585C81.6828 117.512 81.5874 117.56 81.5874 117.73C81.5874 117.901 81.7067 118.095 81.8259 118.168L90.2926 123.15C90.4357 123.223 90.5549 123.174 90.5549 123.004C90.5311 122.834 90.4357 122.64 90.2926 122.567Z" fill="white"/>
<path d="M90.2438 143.566L81.7771 138.584C81.634 138.511 81.5386 138.559 81.5386 138.729C81.5386 138.9 81.6578 139.094 81.7771 139.167L90.2438 144.149C90.3869 144.222 90.5062 144.173 90.5062 144.003C90.4823 143.833 90.363 143.639 90.2438 143.566Z" fill="white"/>
<path d="M115.358 74.204L106.891 69.2218C106.748 69.1489 106.629 69.1975 106.629 69.3676C106.629 69.5377 106.748 69.7322 106.867 69.8051L115.334 74.7872C115.477 74.8602 115.573 74.8115 115.573 74.6414C115.596 74.4956 115.501 74.3012 115.358 74.204Z" fill="white"/>
<path d="M115.287 95.2015L106.82 90.2193C106.677 90.1464 106.558 90.195 106.558 90.3651C106.558 90.5353 106.677 90.7297 106.797 90.8026L115.263 95.7848C115.406 95.8577 115.502 95.8091 115.502 95.639C115.549 95.4932 115.43 95.2987 115.287 95.2015Z" fill="white"/>
<path d="M115.238 116.2L106.772 111.217C106.629 111.144 106.509 111.193 106.509 111.363C106.509 111.533 106.629 111.728 106.748 111.801L115.214 116.783C115.358 116.856 115.453 116.807 115.453 116.637C115.477 116.491 115.381 116.297 115.238 116.2Z" fill="white"/>
<path d="M115.191 137.199L106.724 132.216C106.581 132.143 106.462 132.192 106.462 132.362C106.462 132.532 106.581 132.727 106.7 132.8L115.167 137.782C115.31 137.855 115.405 137.806 115.405 137.636C115.429 137.49 115.31 137.296 115.191 137.199Z" fill="white"/>
<path d="M115.12 158.196L106.653 153.213C106.51 153.141 106.391 153.189 106.391 153.359C106.391 153.529 106.51 153.724 106.629 153.797L115.096 158.779C115.239 158.852 115.334 158.803 115.334 158.633C115.358 158.487 115.263 158.269 115.12 158.196Z" fill="white"/>
<path d="M111.065 66.8651L73.5254 44.7734C72.476 44.1901 71.4505 43.9471 70.5919 44.0686C70.3772 44.0929 70.1625 44.1415 69.9718 44.2144L69.2086 44.4088V44.6519C68.4931 45.2351 68.0638 46.2559 68.0638 47.6898L67.7776 145.535C67.7776 149.059 70.2103 153.336 73.2153 155.11L110.469 177.494C112.544 179.001 116.216 177.542 116.216 174.018L116.479 76.4406C116.503 72.9166 114.07 68.6149 111.065 66.8651Z" fill="#C7D1F4"/>
<path d="M110.183 67.0841L72.6434 44.9924C69.6383 43.2182 67.1818 44.6521 67.1818 48.1761L66.9194 145.754C66.9194 149.278 69.3521 153.555 72.3572 155.329L109.897 177.421C112.902 179.195 115.358 177.761 115.358 174.237L115.621 76.6596C115.621 73.1356 113.188 68.8582 110.183 67.0841ZM79.0351 56.1233C79.0828 56.1476 79.1543 56.1962 79.202 56.2205C81.8971 57.8974 84.0435 61.7617 84.0435 64.9454C84.0435 68.1291 81.8732 69.4415 79.1782 67.959C79.1305 67.9347 79.0589 67.8861 79.0112 67.8618C76.2447 66.2335 74.0028 62.272 74.0028 59.0397C74.0028 55.783 76.2447 54.495 79.0351 56.1233ZM78.7489 151.854C75.9823 150.226 73.7405 146.264 73.7405 143.032C73.7405 139.775 76.0062 138.487 78.7727 140.116C81.5393 141.744 83.7812 145.705 83.7812 148.938C83.7812 152.17 81.5393 153.482 78.7489 151.854ZM78.8205 130.856C76.0539 129.228 73.812 125.266 73.812 122.034C73.812 118.777 76.0777 117.489 78.8443 119.118C81.6109 120.746 83.8527 124.707 83.8527 127.94C83.8527 131.172 81.587 132.484 78.8205 130.856ZM78.8681 109.858C76.1016 108.23 73.8597 104.268 73.8597 101.036C73.8597 97.7792 76.1254 96.4911 78.892 98.1194C81.6586 99.7478 83.9004 103.709 83.9004 106.942C83.9004 110.174 81.6586 111.486 78.8681 109.858ZM78.9397 88.8599C76.1731 87.2315 73.9313 83.2701 73.9313 80.0378C73.9313 76.7811 76.197 75.493 78.9635 77.1213C81.7301 78.7497 83.972 82.7111 83.972 85.9435C83.9481 89.1758 81.7063 90.4882 78.9397 88.8599ZM91.4608 163.884C91.4608 164.103 91.3177 164.176 91.1269 164.079C90.9361 163.981 90.793 163.714 90.793 163.495L91.0792 58.5293C91.0792 58.3106 91.2223 58.2377 91.4131 58.3349C91.6039 58.4321 91.747 58.6994 91.747 58.9182L91.4608 163.884ZM103.505 166.412C100.738 164.783 98.4965 160.822 98.4965 157.59C98.4965 154.333 100.762 153.045 103.529 154.673C106.295 156.302 108.537 160.263 108.537 163.495C108.537 166.728 106.271 168.04 103.505 166.412ZM103.576 145.414C100.81 143.785 98.568 139.824 98.568 136.592C98.568 133.335 100.834 132.047 103.6 133.675C106.367 135.304 108.609 139.265 108.609 142.497C108.585 145.73 106.343 147.042 103.576 145.414ZM103.624 124.416C100.858 122.787 98.6157 118.826 98.6157 115.594C98.6157 112.337 100.881 111.049 103.648 112.677C106.415 114.305 108.656 118.267 108.656 121.499C108.656 124.756 106.391 126.044 103.624 124.416ZM103.672 103.418C100.905 101.789 98.6634 97.8278 98.6634 94.5954C98.6634 91.3388 100.929 90.0507 103.696 91.6791C106.462 93.3074 108.704 97.2688 108.704 100.501C108.704 103.758 106.462 105.046 103.672 103.418ZM103.743 82.4195C100.977 80.7912 98.735 76.8297 98.735 73.5974C98.735 70.3407 101.001 69.0526 103.767 70.681C106.534 72.3093 108.776 76.2707 108.776 79.5031C108.776 82.7597 106.51 84.0721 103.743 82.4195Z" fill="white"/>
<path d="M80.847 55.0292C80.7993 55.0049 80.7277 54.9563 80.68 54.932C79.249 54.0813 77.9612 54.0327 77.0549 54.616C76.9595 54.6646 76.8641 54.7375 76.7925 54.8104L75.5046 55.7583L75.6477 57.0463L75.7193 56.9977C75.6716 57.2651 75.6716 57.5567 75.6477 57.8484C75.6477 61.105 77.8658 65.0421 80.6562 66.6705C80.7039 66.6948 80.7754 66.7434 80.8231 66.7677C81.0616 66.8892 81.2762 67.0107 81.5147 67.0836L81.4432 67.1322L82.588 68.2502L84.4483 66.8892C84.4483 66.8892 84.4483 66.8892 84.4721 66.8649C85.2591 66.2816 85.7123 65.2123 85.7362 63.7298C85.6885 60.5703 83.542 56.7061 80.847 55.0292ZM76.3632 58.5531C76.2201 58.4802 76.1247 58.2858 76.1247 58.1157C76.1247 57.9456 76.244 57.897 76.3632 57.9699V58.5531Z" fill="#C7D1F4"/>
<path d="M80.6093 75.9052C79.1783 75.0546 77.8666 75.006 76.9603 75.6136L76.9365 75.5893L75.3862 76.7315L75.5293 78.0196L75.6247 77.9467C75.577 78.214 75.5532 78.5299 75.5532 78.8459C75.5532 82.1025 77.7712 86.0397 80.5616 87.668C80.8478 87.8381 81.134 87.9596 81.3963 88.0811L81.3009 88.1298L82.4457 89.2477L84.0675 88.0568C84.9976 87.5465 85.5939 86.3799 85.5939 84.7516C85.6177 81.495 83.3759 77.5335 80.6093 75.9052Z" fill="#C7D1F4"/>
<path d="M80.5612 96.9042C79.0826 96.0293 77.747 96.005 76.8168 96.6611L75.2666 97.8034L75.4097 99.0915L75.5766 98.97C75.5289 99.2373 75.5051 99.5289 75.5051 99.8449C75.5051 103.102 77.7231 107.039 80.5136 108.667C80.7998 108.837 81.0859 108.983 81.3721 109.08L81.1813 109.202L82.3261 110.32L84.1387 108.983C84.9973 108.448 85.5459 107.306 85.5459 105.726C85.5697 102.494 83.3278 98.5325 80.5612 96.9042Z" fill="#C7D1F4"/>
<path d="M80.4893 117.902C78.9868 117.027 77.6512 117.003 76.721 117.684L76.6972 117.659L75.147 118.801L75.2901 120.09L75.5047 119.944C75.457 120.235 75.4332 120.527 75.4332 120.843C75.4332 124.1 77.6512 128.037 80.4416 129.665C80.7278 129.835 80.9901 129.957 81.2763 130.078L81.0855 130.2L82.2303 131.318L83.9236 130.078C84.9015 129.568 85.4977 128.426 85.4977 126.724C85.4977 123.492 83.2559 119.531 80.4893 117.902Z" fill="#C7D1F4"/>
<path d="M80.4417 138.9C79.1061 138.098 77.8898 138.001 76.9835 138.487L76.9596 138.463L75.4094 139.605L75.5287 140.626C75.4571 140.99 75.4094 141.379 75.4094 141.816C75.4094 145.073 77.6274 149.01 80.4178 150.639C80.7756 150.857 81.1333 151.027 81.4911 151.125L82.4928 152.097L84.043 150.955C84.1384 150.882 84.2338 150.809 84.3292 150.736L84.353 150.712C85.0447 150.104 85.4501 149.083 85.4501 147.698C85.4501 144.49 83.2082 140.528 80.4417 138.9Z" fill="#C7D1F4"/>
<path d="M105.389 81.2279C105.914 81.5438 106.415 81.7382 106.892 81.8354L107.631 82.5645L109.491 81.1792V81.1063C110.064 80.4988 110.398 79.5266 110.398 78.2628C110.398 75.0062 108.18 71.0691 105.389 69.4407C104.149 68.7116 103.028 68.5658 102.146 68.9304L102.098 68.8818L101.859 69.0519C101.693 69.1491 101.526 69.2706 101.382 69.3921L100.548 69.9997L100.619 70.6073C100.452 71.0934 100.357 71.6767 100.357 72.3328C100.381 75.6381 102.623 79.5995 105.389 81.2279Z" fill="#C7D1F4"/>
<path d="M105.365 90.4632C104.125 89.7341 102.98 89.5883 102.097 89.9528L102.05 89.9042L100.499 91.0465L100.571 91.727C100.404 92.213 100.333 92.772 100.333 93.4039C100.333 96.6605 102.551 100.598 105.341 102.226C105.866 102.518 106.367 102.736 106.82 102.834L107.559 103.563L108.942 102.542C109.062 102.469 109.157 102.396 109.252 102.299L109.443 102.177V102.153C110.039 101.546 110.373 100.573 110.373 99.2853C110.373 96.053 108.131 92.1158 105.365 90.4632Z" fill="#C7D1F4"/>
<path d="M105.293 111.462C104.005 110.708 102.812 110.587 101.906 111L101.882 110.975L101.715 111.097C101.596 111.17 101.477 111.267 101.358 111.364L100.356 112.118L100.451 112.944C100.332 113.381 100.26 113.843 100.26 114.402C100.26 117.659 102.479 121.596 105.269 123.224C105.698 123.492 106.127 123.662 106.533 123.783L107.415 124.658L109.276 123.273V123.249C109.92 122.641 110.301 121.645 110.301 120.308C110.325 117.051 108.083 113.09 105.293 111.462Z" fill="#C7D1F4"/>
<path d="M105.246 132.459C103.934 131.681 102.742 131.584 101.859 131.997L101.811 131.973L100.261 133.115L100.357 134.015C100.261 134.428 100.19 134.89 100.19 135.4C100.19 138.657 102.408 142.594 105.198 144.222C105.627 144.465 106.033 144.659 106.438 144.757L107.321 145.632L108.728 144.587C108.895 144.489 109.038 144.392 109.181 144.246C109.825 143.639 110.231 142.618 110.231 141.281C110.254 138.049 108.012 134.087 105.246 132.459Z" fill="#C7D1F4"/>
<path d="M105.174 153.458C104.03 152.777 102.98 152.607 102.122 152.874L102.026 152.777L101.597 153.093C101.478 153.166 101.358 153.263 101.239 153.36L100.5 153.919L100.548 154.333C100.285 154.892 100.142 155.572 100.142 156.374C100.142 159.631 102.36 163.568 105.151 165.196C105.794 165.585 106.415 165.804 106.987 165.877L107.559 166.436L109.42 165.05L109.396 164.929C109.873 164.321 110.159 163.398 110.159 162.256C110.207 159.047 107.965 155.086 105.174 153.458Z" fill="#C7D1F4"/>
<path d="M79.2012 56.2192C79.1535 56.1949 79.0819 56.1463 79.0342 56.122C76.2677 54.4937 74.002 55.806 74.002 59.0384C74.002 62.295 76.22 66.2322 79.0104 67.8605C79.0581 67.8848 79.1297 67.9334 79.1774 67.9577C81.8724 69.4402 84.0427 68.1278 84.0427 64.9441C84.0427 61.7604 81.8962 57.8961 79.2012 56.2192ZM83.1603 64.7254L74.6936 59.7432C74.5505 59.6703 74.4551 59.4758 74.4551 59.3057C74.4551 59.1356 74.5744 59.087 74.6936 59.1599L83.1603 64.1421C83.3034 64.215 83.3988 64.4094 83.3988 64.5796C83.4226 64.7497 83.3034 64.8226 83.1603 64.7254Z" fill="#E0E5F4"/>
<path d="M78.9634 77.1205C76.1969 75.4922 73.9312 76.8046 73.9312 80.0369C73.9312 83.2936 76.1492 87.2307 78.9396 88.859C81.7061 90.4874 83.9718 89.175 83.9718 85.9426C83.9718 82.686 81.73 78.7488 78.9634 77.1205ZM83.1133 85.7239L74.6466 80.7417C74.5035 80.6688 74.4081 80.4744 74.4081 80.3043C74.4081 80.1341 74.5274 80.0855 74.6466 80.1584L83.1133 85.1406C83.2564 85.2135 83.3518 85.408 83.3518 85.5781C83.3518 85.7482 83.2564 85.8211 83.1133 85.7239Z" fill="#E0E5F4"/>
<path d="M78.9158 98.0946C76.1493 96.4663 73.8835 97.7787 73.8835 101.011C73.8835 104.268 76.1016 108.205 78.892 109.833C81.6585 111.461 83.9242 110.149 83.9242 106.917C83.9242 103.684 81.6824 99.7473 78.9158 98.0946ZM83.0418 106.722L74.5752 101.74C74.4321 101.667 74.3367 101.473 74.3367 101.303C74.3367 101.133 74.4559 101.084 74.5752 101.157L83.0418 106.139C83.1849 106.212 83.2803 106.406 83.2803 106.577C83.3042 106.747 83.1849 106.795 83.0418 106.722Z" fill="#E0E5F4"/>
<path d="M78.8438 119.093C76.0772 117.465 73.8115 118.777 73.8115 122.01C73.8115 125.266 76.0295 129.203 78.82 130.832C81.5865 132.46 83.8523 131.148 83.8523 127.915C83.8523 124.683 81.6104 120.746 78.8438 119.093ZM82.9937 127.721L74.527 122.739C74.3839 122.666 74.2885 122.471 74.2885 122.301C74.2885 122.131 74.4078 122.082 74.527 122.155L82.9937 127.138C83.1368 127.21 83.2322 127.405 83.2322 127.575C83.256 127.745 83.1368 127.794 82.9937 127.721Z" fill="#E0E5F4"/>
<path d="M78.7962 140.09C76.0296 138.462 73.7639 139.774 73.7639 143.007C73.7639 146.263 75.9819 150.2 78.7724 151.829C81.5389 153.457 83.8046 152.145 83.8046 148.912C83.8046 145.68 81.5628 141.743 78.7962 140.09ZM82.9461 148.718L74.4794 143.736C74.3363 143.663 74.2409 143.468 74.2409 143.298C74.2409 143.128 74.3602 143.08 74.4794 143.152L82.9461 148.135C83.0892 148.208 83.1846 148.402 83.1846 148.572C83.1846 148.742 83.0653 148.791 82.9461 148.718Z" fill="#E0E5F4"/>
<path d="M103.767 70.6801C101 69.0518 98.7346 70.3641 98.7346 73.5965C98.7346 76.8531 100.953 80.7903 103.743 82.4186C106.51 84.0469 108.775 82.7345 108.775 79.5022C108.775 76.2699 106.557 72.3084 103.767 70.6801ZM108.06 79.3807L99.5932 74.3985C99.4501 74.3256 99.3547 74.1312 99.3547 73.961C99.3547 73.7909 99.474 73.7423 99.6171 73.8152L108.084 78.7974C108.227 78.8703 108.322 79.0647 108.322 79.2349C108.298 79.3807 108.203 79.4536 108.06 79.3807Z" fill="#E0E5F4"/>
<path d="M103.719 91.6786C100.953 90.0503 98.687 91.3627 98.687 94.595C98.687 97.8517 100.905 101.789 103.695 103.417C106.462 105.045 108.728 103.733 108.728 100.501C108.728 97.2441 106.486 93.3069 103.719 91.6786ZM107.988 100.379L99.5218 95.397C99.3787 95.3241 99.2833 95.1297 99.2833 94.9596C99.2833 94.7894 99.4025 94.7408 99.5456 94.8138L108.012 99.7959C108.155 99.8688 108.251 100.063 108.251 100.233C108.251 100.379 108.132 100.452 107.988 100.379Z" fill="#E0E5F4"/>
<path d="M103.647 112.677C100.881 111.049 98.615 112.361 98.615 115.594C98.615 118.85 100.833 122.787 103.623 124.416C106.39 126.044 108.656 124.732 108.656 121.499C108.68 118.243 106.438 114.305 103.647 112.677ZM107.94 121.378L99.4736 116.396C99.3305 116.323 99.2351 116.128 99.2351 115.958C99.2351 115.788 99.3543 115.739 99.4974 115.812L107.964 120.794C108.107 120.867 108.203 121.062 108.203 121.232C108.179 121.378 108.083 121.451 107.94 121.378Z" fill="#E0E5F4"/>
<path d="M103.6 133.674C100.833 132.046 98.5674 133.358 98.5674 136.591C98.5674 139.847 100.785 143.784 103.576 145.413C106.342 147.041 108.608 145.729 108.608 142.496C108.608 139.24 106.366 135.303 103.6 133.674ZM107.893 142.375L99.426 137.393C99.2829 137.32 99.1875 137.125 99.1875 136.955C99.1875 136.785 99.3067 136.736 99.4498 136.809L107.917 141.792C108.06 141.864 108.155 142.059 108.155 142.229C108.131 142.375 108.012 142.448 107.893 142.375Z" fill="#E0E5F4"/>
<path d="M103.552 154.673C100.785 153.045 98.5198 154.357 98.5198 157.59C98.5198 160.846 100.738 164.783 103.528 166.412C106.295 168.04 108.56 166.728 108.56 163.495C108.56 160.239 106.319 156.302 103.552 154.673ZM107.821 163.35L99.3545 158.367C99.2114 158.294 99.116 158.1 99.116 157.93C99.116 157.76 99.2353 157.711 99.3784 157.784L107.845 162.766C107.988 162.839 108.083 163.034 108.083 163.204C108.083 163.374 107.964 163.447 107.821 163.35Z" fill="#E0E5F4"/>
<path d="M91.4128 58.3342C91.222 58.237 91.0789 58.3099 91.0789 58.5287L90.7927 163.495C90.7927 163.714 90.9358 163.981 91.1266 164.078C91.3174 164.175 91.4605 164.102 91.4605 163.884L91.7467 58.9175C91.7467 58.6988 91.6036 58.4315 91.4128 58.3342Z" fill="#E0E5F4"/>
<path d="M83.1612 64.1419L74.6946 59.1598C74.5515 59.0869 74.4561 59.1355 74.4561 59.3056C74.4561 59.4757 74.5753 59.6701 74.6946 59.743L83.1612 64.7252C83.3043 64.7981 83.4235 64.7495 83.4235 64.5794C83.4235 64.4336 83.3043 64.2149 83.1612 64.1419Z" fill="white"/>
<path d="M83.1136 85.1405L74.6469 80.1583C74.5038 80.0854 74.4084 80.134 74.4084 80.3041C74.4084 80.4742 74.5277 80.6687 74.6469 80.7416L83.1136 85.7238C83.2567 85.7967 83.3759 85.7481 83.3759 85.5779C83.3521 85.4321 83.2567 85.2134 83.1136 85.1405Z" fill="white"/>
<path d="M83.066 106.139L74.5993 101.157C74.4562 101.084 74.3608 101.133 74.3608 101.303C74.3608 101.473 74.4801 101.667 74.5993 101.74L83.066 106.722C83.2091 106.795 83.3283 106.747 83.3283 106.576C83.3044 106.406 83.1852 106.212 83.066 106.139Z" fill="white"/>
<path d="M82.994 127.136L74.5273 122.154C74.3842 122.081 74.2888 122.13 74.2888 122.3C74.2888 122.47 74.4081 122.664 74.5273 122.737L82.994 127.719C83.1371 127.792 83.2563 127.744 83.2563 127.574C83.2563 127.403 83.1371 127.209 82.994 127.136Z" fill="white"/>
<path d="M82.9463 148.135L74.4797 143.153C74.3366 143.08 74.2412 143.129 74.2412 143.299C74.2412 143.469 74.3605 143.663 74.4797 143.736L82.9463 148.718C83.0894 148.791 83.2087 148.743 83.2087 148.573C83.1848 148.402 83.0656 148.208 82.9463 148.135Z" fill="white"/>
<path d="M108.059 78.7977L99.5927 73.8155C99.4496 73.7426 99.3303 73.7912 99.3303 73.9613C99.3303 74.1315 99.4496 74.3259 99.5688 74.3988L108.036 79.381C108.179 79.4539 108.274 79.4053 108.274 79.2352C108.298 79.065 108.202 78.8706 108.059 78.7977Z" fill="white"/>
<path d="M108.012 99.7953L99.5451 94.8131C99.402 94.7402 99.2827 94.7888 99.2827 94.9589C99.2827 95.129 99.402 95.3235 99.5212 95.3964L107.988 100.379C108.131 100.451 108.226 100.403 108.226 100.233C108.25 100.063 108.131 99.8682 108.012 99.7953Z" fill="white"/>
<path d="M107.941 120.793L99.4743 115.811C99.3312 115.738 99.2119 115.787 99.2119 115.957C99.2119 116.127 99.3312 116.322 99.4504 116.394L107.917 121.377C108.06 121.45 108.156 121.401 108.156 121.231C108.179 121.061 108.084 120.866 107.941 120.793Z" fill="white"/>
<path d="M107.893 141.768L99.4266 136.786C99.2835 136.713 99.1643 136.761 99.1643 136.932C99.1643 137.102 99.2836 137.296 99.4028 137.369L107.869 142.351C108.013 142.424 108.108 142.375 108.108 142.205C108.132 142.06 108.013 141.865 107.893 141.768Z" fill="white"/>
<path d="M107.821 162.765L99.3546 157.783C99.2115 157.71 99.0923 157.759 99.0923 157.929C99.0923 158.099 99.2115 158.293 99.3308 158.366L107.797 163.348C107.941 163.421 108.036 163.373 108.036 163.202C108.084 163.057 107.964 162.862 107.821 162.765Z" fill="white"/>
<path d="M132.196 61.7847L110.23 75.0786L109.992 182.475L132.506 169.205L132.196 61.7847Z" fill="#C7D1F4"/>
<path d="M110.111 75.03L56.3298 43.5815L56.3775 151.172L109.992 182.597L110.23 75.0543L110.111 75.03Z" fill="#E0E5F4"/>
<path d="M112.448 74.3995V73.7433L110.23 75.0799L109.992 182.476L112.448 181.018V81.2044L121.225 93.7935L132.101 86.3567V61.7617L112.448 74.3995Z" fill="#BBC5E6"/>
<path d="M110.23 75.0786L132.196 61.7847L135.177 78.1165L120.438 86.647L110.23 75.0786Z" fill="#E0E5F4"/>
<path d="M60.4326 148.111L71.332 154.26L71.5227 92.2863L60.6234 86.1133L60.4326 148.111Z" fill="#009BA6"/>
<path d="M79.655 158.974L81.4199 159.971L81.5153 126.894L79.7504 125.873L79.655 158.974Z" fill="#009BA6"/>
<path d="M97.7331 73.7671L97.7092 84.0231L106.82 89.1754L106.844 78.9194L97.7331 73.7671Z" fill="#009BA6"/>
<path d="M24.5837 185.055C24.5935 181.538 19.775 178.673 13.8214 178.656C7.86769 178.639 3.03336 181.476 3.02357 184.992C3.01379 188.509 7.83226 191.374 13.7859 191.391C19.7396 191.408 24.5739 188.571 24.5837 185.055Z" fill="#E0E5F4"/>
<path d="M21.5955 185.048C21.6053 181.532 16.7868 178.667 10.8331 178.65C4.87948 178.633 0.0451377 181.47 0.0353323 184.986C0.0255269 188.503 4.84398 191.368 10.7976 191.385C16.7513 191.402 21.5857 188.565 21.5955 185.048Z" fill="#88A4F7"/>
<path d="M0.0102539 182.235V185.03L21.5942 185.176V182.405L0.0102539 182.235Z" fill="#88A4F7"/>
<path d="M21.5787 182.27C21.5887 178.754 16.7704 175.889 10.8167 175.872C4.86303 175.855 0.0285373 178.693 0.0185578 182.209C0.00857827 185.726 4.82689 188.59 10.7806 188.607C16.7342 188.624 21.5687 185.787 21.5787 182.27Z" fill="#C7D1F4"/>
<path d="M3.5393 185.687C3.42005 185.687 3.3008 185.614 3.22925 185.492C3.13385 185.322 3.2054 185.104 3.37235 185.031L16.7043 177.91C16.8713 177.813 17.0859 177.885 17.1575 178.056C17.2529 178.226 17.1813 178.444 17.0144 178.517L3.6824 185.638C3.6347 185.663 3.587 185.687 3.5393 185.687Z" fill="white"/>
<path d="M46.062 166.163C46.0717 162.646 41.2533 159.782 35.2996 159.764C29.346 159.747 24.5116 162.584 24.5018 166.101C24.4921 169.617 29.3105 172.482 35.2642 172.499C41.2179 172.517 46.0522 169.68 46.062 166.163Z" fill="#E0E5F4"/>
<path d="M43.0737 166.157C43.0835 162.64 38.2651 159.775 32.3114 159.758C26.3578 159.741 21.5234 162.578 21.5136 166.095C21.5038 169.611 26.3222 172.476 32.2759 172.493C38.2296 172.51 43.0639 169.673 43.0737 166.157Z" fill="#88A4F7"/>
<path d="M21.4897 163.344V166.138L43.0737 166.284V163.514L21.4897 163.344Z" fill="#88A4F7"/>
<path d="M43.057 163.377C43.0669 159.861 38.2486 156.996 32.295 156.979C26.3413 156.963 21.5068 159.8 21.4968 163.316C21.4868 166.833 26.3052 169.697 32.2588 169.714C38.2125 169.731 43.047 166.894 43.057 163.377Z" fill="#C7D1F4"/>
<path d="M25.0188 166.795C24.8995 166.795 24.7803 166.722 24.7087 166.601C24.6133 166.431 24.6849 166.212 24.8518 166.139L38.1838 159.018C38.3508 158.921 38.5654 158.994 38.637 159.164C38.7324 159.334 38.6608 159.553 38.4939 159.626L25.1619 166.747C25.1142 166.771 25.0665 166.795 25.0188 166.795Z" fill="white"/>
<path d="M49.6697 199.969C55.6234 199.952 60.4419 197.087 60.4321 193.571C60.4223 190.054 55.588 187.217 49.6343 187.234C43.6806 187.252 38.8622 190.116 38.872 193.633C38.8817 197.15 43.7161 199.987 49.6697 199.969Z" fill="#E0E5F4"/>
<path d="M46.4502 199.97C52.4039 199.953 57.2222 197.089 57.2122 193.572C57.2023 190.055 52.3678 187.218 46.4141 187.235C40.4604 187.252 35.6421 190.116 35.6521 193.633C35.6621 197.15 40.4966 199.987 46.4502 199.97Z" fill="#88A4F7"/>
<path d="M57.2125 190.806V193.601L35.6523 193.746V190.976L57.2125 190.806Z" fill="#88A4F7"/>
<path d="M46.4502 197.175C52.4038 197.158 57.2221 194.293 57.2122 190.777C57.2022 187.26 52.3678 184.423 46.4141 184.44C40.4604 184.457 35.6421 187.321 35.6521 190.838C35.662 194.354 40.4965 197.191 46.4502 197.175Z" fill="#C7D1F4"/>
<path d="M53.7053 194.257C53.8246 194.257 53.9438 194.184 54.0154 194.063C54.1108 193.893 54.0392 193.674 53.8723 193.601L40.5403 186.48C40.3734 186.383 40.1587 186.456 40.0872 186.626C39.9918 186.796 40.0633 187.015 40.2303 187.088L53.5622 194.209C53.6099 194.233 53.6576 194.257 53.7053 194.257Z" fill="white"/>
</svg>
