<svg width="42" height="42" viewBox="0 0 42 42" fill="none" xmlns="http://www.w3.org/2000/svg">
<path d="M11.9677 21H3.58065C2.16129 21 1 19.8387 1 18.4194V3.58065C1 2.16129 2.16129 1 3.58065 1H18.4194C19.8387 1 21 2.16129 21 3.58065V13.2581" stroke="#925ADD" stroke-width="1.5" stroke-miterlimit="10" stroke-linecap="round" stroke-linejoin="round"/>
<path d="M5.51626 4.87109H4.87109V8.74206C4.87109 10.1614 6.03238 11.9679 7.45174 11.9679C8.87109 11.9679 10.0324 10.1614 10.0324 8.74206V4.87109H9.38722" stroke="#925ADD" stroke-width="1.5" stroke-miterlimit="10" stroke-linecap="round" stroke-linejoin="round"/>
<path d="M7.45166 11.9677V13.258C7.45166 15.4032 9.17747 17.129 11.3226 17.129C13.4678 17.129 15.1936 15.4032 15.1936 13.258V11.3225" stroke="#925ADD" stroke-width="1.5" stroke-miterlimit="10" stroke-linecap="round" stroke-linejoin="round"/>
<path d="M15.1935 11.3226C16.2625 11.3226 17.129 10.4561 17.129 9.38714C17.129 8.31821 16.2625 7.45166 15.1935 7.45166C14.1246 7.45166 13.2581 8.31821 13.2581 9.38714C13.2581 10.4561 14.1246 11.3226 15.1935 11.3226Z" stroke="#925ADD" stroke-width="1.5" stroke-miterlimit="10" stroke-linecap="round" stroke-linejoin="round"/>
<path d="M21 3.58065C21 2.16129 22.1613 1 23.5806 1H38.4194C39.8387 1 41 2.16129 41 3.58065V19.0645" stroke="#925ADD" stroke-width="1.5" stroke-miterlimit="10" stroke-linecap="round" stroke-linejoin="round"/>
<path d="M25.5163 4.87109H24.8711V8.74206C24.8711 10.1614 26.0324 11.9679 27.4517 11.9679C28.8711 11.9679 30.0324 10.1614 30.0324 8.74206V4.87109H29.3872" stroke="#925ADD" stroke-width="1.5" stroke-miterlimit="10" stroke-linecap="round" stroke-linejoin="round"/>
<path d="M27.4517 11.9677V13.258C27.4517 15.4032 29.1775 17.129 31.3226 17.129C33.4678 17.129 35.1936 15.4032 35.1936 13.258V11.3225" stroke="#925ADD" stroke-width="1.5" stroke-miterlimit="10" stroke-linecap="round" stroke-linejoin="round"/>
<path d="M35.1935 11.3226C36.2625 11.3226 37.129 10.4561 37.129 9.38714C37.129 8.31821 36.2625 7.45166 35.1935 7.45166C34.1246 7.45166 33.2581 8.31821 33.2581 9.38714C33.2581 10.4561 34.1246 11.3226 35.1935 11.3226Z" stroke="#925ADD" stroke-width="1.5" stroke-miterlimit="10" stroke-linecap="round" stroke-linejoin="round"/>
<path d="M19.0645 41H3.58065C2.16129 41 1 39.8387 1 38.4194V23.5806C1 22.1613 2.16129 21 3.58065 21" stroke="#925ADD" stroke-width="1.5" stroke-miterlimit="10" stroke-linecap="round" stroke-linejoin="round"/>
<path d="M5.51626 24.8711H4.87109V28.7421C4.87109 30.1614 6.03238 31.9679 7.45174 31.9679C8.87109 31.9679 10.0324 30.1614 10.0324 28.7421V24.8711H9.38722" stroke="#925ADD" stroke-width="1.5" stroke-miterlimit="10" stroke-linecap="round" stroke-linejoin="round"/>
<path d="M7.45166 31.9677V33.258C7.45166 35.4032 9.17747 37.129 11.3226 37.129C13.4678 37.129 15.1936 35.4032 15.1936 33.258V31.3225" stroke="#925ADD" stroke-width="1.5" stroke-miterlimit="10" stroke-linecap="round" stroke-linejoin="round"/>
<path d="M15.1935 31.3226C14.129 31.3226 13.2581 30.4517 13.2581 29.3871C13.2581 28.3226 14.129 27.4517 15.1935 27.4517" stroke="#925ADD" stroke-width="1.5" stroke-miterlimit="10" stroke-linecap="round" stroke-linejoin="round"/>
<path d="M31.3227 41L27.1292 39.758C26.9356 39.7097 26.7582 39.629 26.5808 39.5484C24.8711 38.6613 23.4034 37.2258 22.3388 35.6451L19.6292 31.5645C19.0808 30.7258 18.6937 29.9838 19.5646 29.4032C20.4356 28.8226 22.7259 29.3548 23.2904 30.1935L25.2743 33.1935L16.8227 20.4193C16.2743 19.5806 16.5324 18.4193 17.4033 17.8387C18.2743 17.258 19.4517 17.4677 20.0001 18.3064L25.0808 26L24.2259 24.6935C23.6775 23.8548 23.9356 22.6935 24.8066 22.1129C25.6775 21.5322 26.855 21.7419 27.4033 22.5806L28.6775 24.5161L28.2098 23.8064C27.6614 22.9677 27.9195 21.8064 28.7904 21.2258C29.6614 20.6451 30.8388 20.8548 31.3872 21.6935L32.6937 23.6774L32.1937 22.9193C31.6453 22.0806 31.9034 20.9193 32.7743 20.3387C33.6453 19.758 34.8227 19.9677 35.3711 20.8064L38.1937 25.0806C39.6453 27.258 40.5001 29.6451 41.0001 32.2097" stroke="#925ADD" stroke-width="1.5" stroke-miterlimit="10" stroke-linecap="round" stroke-linejoin="round"/>
</svg>
