<svg width="24" height="24" viewBox="0 0 24 24" fill="none" xmlns="http://www.w3.org/2000/svg">
<path d="M0.816815 3.27919C1.10136 1.37276 2.75403 -0.000976562 4.68158 -0.000976562H19.2185C21.1294 -0.000976562 22.7727 1.34919 23.0764 3.23581C23.4849 5.77261 23.9683 9.31084 23.9984 11.999C24.0281 14.6533 23.634 18.1435 23.2858 20.6751C23.021 22.6012 21.359 23.999 19.4147 23.999H4.68158C2.75403 23.999 1.10136 22.6253 0.816816 20.7189C0.438548 18.1845 0 14.6703 0 11.999C0 9.32775 0.438548 5.81353 0.816815 3.27919Z" fill="url(#paint0_linear_301_532)"/>
<path d="M19.6353 6.9846C19.5313 7.20644 19.3378 7.48666 19.0547 7.82524C18.7717 8.16381 18.4222 8.46155 18.0062 8.71841C18.0178 8.81183 18.0265 8.89938 18.0322 8.98111C18.0771 10.2394 17.7788 11.545 17.365 12.6326C16.5629 14.6549 15.3338 16.2824 13.5783 17.3875C11.7476 18.4486 9.61559 18.6743 7.65126 18.4821C6.34717 18.3307 5.06186 17.9004 4.08984 17.0898C5.86764 17.3045 7.52675 16.6934 8.8384 15.7062C7.38137 15.7435 6.32274 14.6784 5.8229 13.447C6.04822 13.5067 6.28393 13.4995 6.49879 13.482C6.76327 13.4569 7.01433 13.4319 7.26134 13.377C6.33228 13.074 5.51935 12.5172 5.09503 11.6782C4.84613 11.1465 4.73375 10.6403 4.73109 10.0669C5.16643 10.2986 5.69009 10.5243 6.16953 10.5048C5.44547 9.88492 4.865 9.09278 4.75709 8.18423C4.68897 7.4267 4.87655 6.7352 5.14704 6.0914C6.23013 7.29428 7.44537 8.2842 8.84709 8.89353C9.8057 9.29022 10.7616 9.50236 11.75 9.50648C11.6359 8.61439 11.7246 7.75161 12.1399 7.01959C12.6287 6.23257 13.3418 5.77595 14.1416 5.54847C15.286 5.25193 16.4021 5.6708 17.1051 6.47667C17.8632 6.39392 18.5894 6.05405 19.1674 5.70608C18.9218 6.45765 18.4436 7.20492 17.7463 7.56249C18.4102 7.43829 19.0437 7.23968 19.6353 6.9846Z" fill="white"/>
<defs>
<linearGradient id="paint0_linear_301_532" x1="4.50811" y1="-0.000976469" x2="9.60877" y2="25.8946" gradientUnits="userSpaceOnUse">
<stop stop-color="#79CBEB"/>
<stop offset="1" stop-color="#2C64F5"/>
</linearGradient>
</defs>
</svg>
