<svg width="24" height="24" viewBox="0 0 24 24" fill="none" xmlns="http://www.w3.org/2000/svg">
<path d="M0.816815 3.27919C1.10136 1.37276 2.75403 -0.000976562 4.68158 -0.000976562H19.2185C21.1294 -0.000976562 22.7727 1.34919 23.0764 3.23581C23.4849 5.77261 23.9683 9.31084 23.9984 11.999C24.0281 14.6533 23.634 18.1435 23.2858 20.6751C23.021 22.6012 21.359 23.999 19.4147 23.999H4.68158C2.75403 23.999 1.10136 22.6253 0.816816 20.7189C0.438548 18.1845 0 14.6703 0 11.999C0 9.32775 0.438548 5.81353 0.816815 3.27919Z" fill="url(#paint0_linear_301_538)"/>
<path fill-rule="evenodd" clip-rule="evenodd" d="M11.8777 15.769H12.6714C12.6714 15.769 12.9095 15.7287 13.0286 15.6076C13.1477 15.4865 13.1477 15.2443 13.1477 15.2443C13.1477 15.2443 13.1477 14.1948 13.6239 14.0334C14.1001 13.8719 14.7351 15.0828 15.37 15.5268C15.8463 15.8901 16.2034 15.8094 16.2034 15.8094L17.9496 15.769C17.9496 15.769 18.8623 15.7287 18.4258 14.9618C18.3861 14.9214 18.1877 14.437 17.1162 13.4279C16.005 12.3785 16.1637 12.5803 17.4734 10.7639C18.2671 9.67412 18.5845 9.0283 18.5052 8.70539C18.4258 8.42285 17.8305 8.50357 17.8305 8.50357H15.8463C15.8463 8.50357 15.6875 8.46321 15.6081 8.54394C15.4891 8.62466 15.4494 8.74575 15.4494 8.74575C15.4494 8.74575 15.1319 9.59339 14.7351 10.3199C13.862 11.8134 13.5048 11.8941 13.3858 11.8134C13.0683 11.6116 13.1477 10.9254 13.1477 10.4814C13.1477 9.0283 13.3858 8.42285 12.7111 8.26139C12.5127 8.22103 12.354 8.18066 11.7984 8.18066C11.084 8.18066 10.4887 8.18066 10.1713 8.34212C9.93315 8.46321 9.77441 8.70539 9.89347 8.70539C10.0125 8.70539 10.33 8.78612 10.4887 8.98794C10.6475 9.35121 10.6475 9.95666 10.6475 9.95666C10.6475 9.95666 10.7665 11.6923 10.3697 11.8941C10.0919 12.0556 9.73472 11.7327 8.94102 10.3603C8.54417 9.67412 8.22668 8.86684 8.22668 8.86684C8.22668 8.86684 8.187 8.70539 8.06794 8.62466C7.94889 8.54394 7.75046 8.50357 7.75046 8.50357H5.88525C5.88525 8.50357 5.60746 8.50357 5.4884 8.62466C5.40903 8.74575 5.4884 8.94757 5.4884 8.94757C5.4884 8.94757 6.95676 12.4188 8.62354 14.1948C10.1713 15.8901 11.8777 15.769 11.8777 15.769Z" fill="white"/>
<defs>
<linearGradient id="paint0_linear_301_538" x1="4.50811" y1="-0.000976469" x2="9.60877" y2="25.8946" gradientUnits="userSpaceOnUse">
<stop stop-color="#79CBEB"/>
<stop offset="1" stop-color="#2C64F5"/>
</linearGradient>
</defs>
</svg>
